#N canvas 0 34 1366 704 12;
#X obj 304 906 dac~ 1 2;
#X obj 156 217 hsl 170 20 50 5000 0 0 empty empty empty -2 -10 0 12 #fcfcfc #000000 #000000 0 1;
#X floatatom 153 242 5 0 0 0 - - - 0;
#X obj 152 286 +~;
#X obj 315 874 *~ 0.4;
#X obj 416 349 *~;
#X floatatom 579 455 5 0 0 0 - - - 0;
#X obj 434 672 vsl 20 170 0 0.5 0 0 empty empty empty 0 -9 0 12 #fcfcfc #000000 #000000 0 1;
#X obj 639 157 osc~;
#X floatatom 638 116 5 0 0 0 - - - 0;
#X obj 720 159 osc~;
#X floatatom 719 118 5 0 0 0 - - - 0;
#X obj 772 162 osc~;
#X floatatom 771 121 5 0 0 0 - - - 0;
#X obj 853 164 osc~;
#X floatatom 852 123 5 0 0 0 - - - 0;
#X obj 904 158 osc~;
#X floatatom 903 117 5 0 0 0 - - - 0;
#X obj 985 160 osc~;
#X floatatom 984 119 5 0 0 0 - - - 0;
#X obj 1037 163 osc~;
#X floatatom 1036 122 5 0 0 0 - - - 0;
#X obj 1118 165 osc~;
#X floatatom 1117 124 5 0 0 0 - - - 0;
#X obj 1034 78 1000;
#X obj 812 349 +~;
#X obj 738 12 bng 20 250 50 0 empty empty empty 0 -10 0 12 #fcfcfc #000000 #000000;
#X obj 812 374 *~ 0.1;
#X obj 647 75 301;
#X obj 721 73 300.5;
#X obj 769 77 330;
#X obj 850 69 555, f 6;
#X obj 912 75 556;
#X obj 986 74 990;
#X obj 1115 70 1001, f 6;
#X obj 175 385 vcf~;
#X obj 291 390 hsl 170 20 0 127 0 0 empty empty empty -2 -10 0 12 #fcfcfc #000000 #000000 0 1;
#X obj 288 415 mtof;
#X obj 266 460 sig~;
#X floatatom 216 355 5 0 0 0 - - - 0;
#X obj 152 329 phasor~;
#X obj 1392 282 vsl 20 170 0 1 0 0 empty empty empty 0 -9 0 12 #fcfcfc #000000 #000000 0 1;
#X obj 1175 507 * 5000;
#X obj 1392 460 expr 1- $f1;
#X floatatom 364 459 5 0 0 0 - - - 0;
#X obj 1399 520 + 70;
#X obj 1400 495 * 15;
#X connect 1 0 2 0;
#X connect 2 0 3 0;
#X connect 3 0 40 0;
#X connect 4 0 0 0;
#X connect 4 0 0 1;
#X connect 5 0 3 1;
#X connect 6 0 5 1;
#X connect 7 0 4 1;
#X connect 8 0 25 0;
#X connect 9 0 8 0;
#X connect 10 0 25 1;
#X connect 11 0 10 0;
#X connect 12 0 25 1;
#X connect 13 0 12 0;
#X connect 14 0 25 1;
#X connect 15 0 14 0;
#X connect 16 0 25 1;
#X connect 17 0 16 0;
#X connect 18 0 25 1;
#X connect 19 0 18 0;
#X connect 20 0 25 1;
#X connect 21 0 20 0;
#X connect 22 0 25 1;
#X connect 23 0 22 0;
#X connect 24 0 21 0;
#X connect 25 0 27 0;
#X connect 26 0 24 0;
#X connect 26 0 28 0;
#X connect 26 0 29 0;
#X connect 26 0 30 0;
#X connect 26 0 31 0;
#X connect 26 0 32 0;
#X connect 26 0 33 0;
#X connect 26 0 34 0;
#X connect 27 0 5 0;
#X connect 28 0 9 0;
#X connect 29 0 11 0;
#X connect 30 0 13 0;
#X connect 31 0 15 0;
#X connect 32 0 17 0;
#X connect 33 0 19 0;
#X connect 34 0 23 0;
#X connect 35 1 4 0;
#X connect 36 0 37 0;
#X connect 37 0 38 0;
#X connect 37 0 44 0;
#X connect 38 0 35 1;
#X connect 39 0 35 2;
#X connect 40 0 35 0;
#X connect 41 0 42 0;
#X connect 41 0 43 0;
#X connect 42 0 6 0;
#X connect 43 0 46 0;
#X connect 45 0 36 0;
#X connect 46 0 45 0;
