#N canvas 1368 33 1436 840 12;
#X obj 50 680 *~;
#X obj 190 600 vsl 20 170 0 1 0 0 empty empty empty 0 -9 0 12 #fcfcfc
#000000 #000000 7700 1;
#X obj 50 755 dac~ 1 2;
#X obj 660 268 soundfiler;
#N canvas 0 50 450 250 (subpatch) 0;
#X array sample 201728 float 2 black black;
#X coords 0 1 201728 -1 200 140 1;
#X restore 800 20 graph;
#X msg 660 240 read -resize ~/Musique/rock.wav sample;
#X msg 727 292 \$1;
#X obj 660 293 s size;
#X obj 727 317 send sR;
#X floatatom 660 333 10 0 0 0 - - -, f 10;
#X obj 390 70 hsl 200 15 0 1 0 0 empty empty empty -2 -8 0 10 #fcfcfc
#000000 #000000 1300 1;
#X text 470 40 start;
#X obj 650 70 hsl 128 15 0 1 0 0 empty empty empty -2 -8 0 10 #fcfcfc
#000000 #000000 2950 1;
#X text 670 40 end;
#X obj 470 94 s B;
#X obj 660 130 -;
#X obj 712 91 r B;
#X obj 660 159 s A;
#X floatatom 470 124 5 0 0 0 - - -, f 5;
#X floatatom 650 94 5 0 0 0 - - -, f 5;
#X floatatom 660 189 5 0 0 0 - - -, f 5;
#X obj 712 120 b;
#X obj 50 70 hsl 128 15 0.02 1 0 0 empty empty empty -2 -8 0 10 #fcfcfc
#000000 #000000 4500 1;
#X obj 210 70 hsl 128 15 0.02 1 0 0 empty empty empty -2 -8 0 10 #fcfcfc
#000000 #000000 7550 1;
#X text 60 30 attack;
#X text 220 30 decay;
#N canvas 1368 33 717 840 1grain 0;
#X obj 60 56 /;
#X floatatom 60 92 5 0 0 0 - - -, f 5;
#X obj 60 212 phasor~;
#X obj 60 412 *~;
#X floatatom 220 70 5 0 0 0 - - -, f 5;
#X obj 218 101 / 100;
#X obj 60 -8 r sR;
#X obj 78 22 r size;
#X obj 99 392 r size;
#X obj 60 282 *~;
#X obj 98 262 r A;
#X obj 60 342 +~;
#X obj 102 322 r B;
#X obj 60 122 /;
#X obj 140 72 r A;
#X obj 140 101 b;
#X obj 60 151 * 1;
#X floatatom 410 281 5 0 0 0 - - -, f 5;
#X obj 218 130 b;
#X floatatom 60 180 5 0 0 0 - - -, f 5;
#X obj 60 514 tabread4~ sample;
#X obj 60 583 *~;
#X obj 420 420 inlet;
#X obj 540 420 inlet;
#X obj 60 642 outlet~;
#X floatatom 331 70 5 0 0 0 - - -, f 5;
#X obj 420 460 *;
#X obj 340 350 b;
#X obj 540 449 *;
#X obj 540 518 +;
#X obj 480 480 b;
#X obj 220 40 inlet;
#X text 220 20 speed;
#X text 330 20 phase;
#X obj 331 42 inlet;
#X obj 340 211 tabwrite~ tabphasor;
#X obj 410 120 tgl 15 0 empty empty empty 17 7 0 10 #fcfcfc #000000
#000000 0 1;
#X obj 170 242 expr~ $v1 <= 0.01;
#X floatatom 540 577 5 0 0 0 - - -, f 5;
#X obj 240 360 metro;
#X obj 240 389 bng 15 250 50 0 empty empty empty 17 7 0 10 #fcfcfc
#000000 #000000;
#X obj 210 270 tgl 15 0 empty empty empty 17 7 0 10 #fcfcfc #000000
#000000 1 1;
#X msg 280 310 tempo \$1 msec;
#X obj 420 519 f;
#X obj 420 548 t f f;
#X msg 420 610 1 \$1;
#X obj 410 710 line~;
#X obj 470 590 delay;
#X obj 470 619 f;
#X msg 470 648 0 \$1;
#X obj 410 739 tabwrite~ tabadsr;
#X obj 403 153 metro 50;
#X obj 340 252 expr abs(1 / $f1 * 1000);
#X obj 240 413 outlet;
#X connect 0 0 1 0;
#X connect 1 0 13 0;
#X connect 2 0 9 0;
#X connect 2 0 35 0;
#X connect 2 0 37 0;
#X connect 3 0 20 0;
#X connect 4 0 5 0;
#X connect 5 0 16 1;
#X connect 5 0 18 0;
#X connect 6 0 0 0;
#X connect 7 0 0 1;
#X connect 8 0 3 1;
#X connect 9 0 11 0;
#X connect 10 0 9 1;
#X connect 11 0 3 0;
#X connect 12 0 11 1;
#X connect 13 0 16 0;
#X connect 14 0 13 1;
#X connect 14 0 15 0;
#X connect 15 0 13 0;
#X connect 16 0 2 0;
#X connect 16 0 19 0;
#X connect 16 0 52 0;
#X connect 18 0 16 0;
#X connect 20 0 21 0;
#X connect 21 0 24 0;
#X connect 22 0 26 0;
#X connect 23 0 28 0;
#X connect 25 0 2 1;
#X connect 26 0 29 1;
#X connect 26 0 30 0;
#X connect 26 0 43 0;
#X connect 27 0 26 0;
#X connect 27 0 28 0;
#X connect 28 0 29 0;
#X connect 29 0 38 0;
#X connect 29 0 48 1;
#X connect 30 0 29 0;
#X connect 31 0 4 0;
#X connect 34 0 25 0;
#X connect 36 0 51 0;
#X connect 39 0 40 0;
#X connect 39 0 43 0;
#X connect 40 0 53 0;
#X connect 41 0 39 0;
#X connect 42 0 39 0;
#X connect 43 0 44 0;
#X connect 44 0 45 0;
#X connect 44 1 47 0;
#X connect 45 0 46 0;
#X connect 46 0 21 1;
#X connect 46 0 50 0;
#X connect 47 0 48 0;
#X connect 48 0 49 0;
#X connect 49 0 46 0;
#X connect 51 0 35 0;
#X connect 51 0 50 0;
#X connect 52 0 17 0;
#X connect 52 0 27 0;
#X connect 52 0 26 1;
#X connect 52 0 28 1;
#X connect 52 0 42 0;
#X restore 50 350 pd 1grain;
#X floatatom 70 270 5 0 0 0 - - -, f 5;
#X floatatom 50 230 5 0 0 0 - - -, f 5;
#N canvas 1368 33 717 840 1grain 0;
#X obj 60 56 /;
#X floatatom 60 92 5 0 0 0 - - -, f 5;
#X obj 60 212 phasor~;
#X obj 60 412 *~;
#X floatatom 220 70 5 0 0 0 - - -, f 5;
#X obj 218 101 / 100;
#X obj 60 -8 r sR;
#X obj 78 22 r size;
#X obj 99 392 r size;
#X obj 60 282 *~;
#X obj 98 262 r A;
#X obj 60 342 +~;
#X obj 102 322 r B;
#X obj 60 122 /;
#X obj 140 72 r A;
#X obj 140 101 b;
#X obj 60 151 * 1;
#X floatatom 410 281 5 0 0 0 - - -, f 5;
#X obj 218 130 b;
#X floatatom 60 180 5 0 0 0 - - -, f 5;
#X obj 60 514 tabread4~ sample;
#X obj 60 583 *~;
#X obj 420 420 inlet;
#X obj 540 420 inlet;
#X obj 60 642 outlet~;
#X floatatom 331 70 5 0 0 0 - - -, f 5;
#X obj 420 460 *;
#X obj 340 350 b;
#X obj 540 449 *;
#X obj 540 518 +;
#X obj 480 480 b;
#X obj 220 40 inlet;
#X text 220 20 speed;
#X text 330 20 phase;
#X obj 331 42 inlet;
#X obj 410 120 tgl 15 0 empty empty empty 17 7 0 10 #fcfcfc #000000
#000000 1 1;
#X obj 170 242 expr~ $v1 <= 0.01;
#X floatatom 540 577 5 0 0 0 - - -, f 5;
#X obj 240 360 metro;
#X obj 240 389 bng 15 250 50 0 empty empty empty 17 7 0 10 #fcfcfc
#000000 #000000;
#X obj 210 270 tgl 15 0 empty empty empty 17 7 0 10 #fcfcfc #000000
#000000 1 1;
#X msg 280 310 tempo \$1 msec;
#X obj 420 519 f;
#X obj 420 548 t f f;
#X msg 420 610 1 \$1;
#X obj 410 710 line~;
#X obj 470 590 delay;
#X obj 470 619 f;
#X msg 470 648 0 \$1;
#X obj 403 153 metro 50;
#X obj 340 252 expr abs(1 / $f1 * 1000);
#X obj 410 739 tabwrite~ tabadsr1;
#X obj 240 413 outlet;
#X connect 0 0 1 0;
#X connect 1 0 13 0;
#X connect 2 0 9 0;
#X connect 2 0 36 0;
#X connect 3 0 20 0;
#X connect 4 0 5 0;
#X connect 5 0 16 1;
#X connect 5 0 18 0;
#X connect 6 0 0 0;
#X connect 7 0 0 1;
#X connect 8 0 3 1;
#X connect 9 0 11 0;
#X connect 10 0 9 1;
#X connect 11 0 3 0;
#X connect 12 0 11 1;
#X connect 13 0 16 0;
#X connect 14 0 13 1;
#X connect 14 0 15 0;
#X connect 15 0 13 0;
#X connect 16 0 2 0;
#X connect 16 0 19 0;
#X connect 16 0 50 0;
#X connect 18 0 16 0;
#X connect 20 0 21 0;
#X connect 21 0 24 0;
#X connect 22 0 26 0;
#X connect 23 0 28 0;
#X connect 25 0 2 1;
#X connect 26 0 29 1;
#X connect 26 0 30 0;
#X connect 26 0 42 0;
#X connect 27 0 26 0;
#X connect 27 0 28 0;
#X connect 28 0 29 0;
#X connect 29 0 37 0;
#X connect 29 0 47 1;
#X connect 30 0 29 0;
#X connect 31 0 4 0;
#X connect 34 0 25 0;
#X connect 35 0 49 0;
#X connect 38 0 39 0;
#X connect 38 0 42 0;
#X connect 39 0 52 0;
#X connect 40 0 38 0;
#X connect 41 0 38 0;
#X connect 42 0 43 0;
#X connect 43 0 44 0;
#X connect 43 1 46 0;
#X connect 44 0 45 0;
#X connect 45 0 21 1;
#X connect 45 0 51 0;
#X connect 46 0 47 0;
#X connect 47 0 48 0;
#X connect 48 0 45 0;
#X connect 49 0 51 0;
#X connect 50 0 17 0;
#X connect 50 0 27 0;
#X connect 50 0 26 1;
#X connect 50 0 28 1;
#X connect 50 0 41 0;
#X restore 140 350 pd 1grain;
#X floatatom 160 290 5 0 0 0 - - -, f 5;
#X floatatom 140 250 5 0 0 0 - - -, f 5;
#N canvas 1368 33 717 840 1grain 0;
#X obj 60 56 /;
#X floatatom 60 92 5 0 0 0 - - -, f 5;
#X obj 60 212 phasor~;
#X obj 60 412 *~;
#X floatatom 220 70 5 0 0 0 - - -, f 5;
#X obj 218 101 / 100;
#X obj 60 -8 r sR;
#X obj 78 22 r size;
#X obj 99 392 r size;
#X obj 60 282 *~;
#X obj 98 262 r A;
#X obj 60 342 +~;
#X obj 102 322 r B;
#X obj 60 122 /;
#X obj 140 72 r A;
#X obj 140 101 b;
#X obj 60 151 * 1;
#X floatatom 410 281 5 0 0 0 - - -, f 5;
#X obj 218 130 b;
#X floatatom 60 180 5 0 0 0 - - -, f 5;
#X obj 60 514 tabread4~ sample;
#X obj 60 583 *~;
#X obj 420 420 inlet;
#X obj 540 420 inlet;
#X obj 60 642 outlet~;
#X floatatom 331 70 5 0 0 0 - - -, f 5;
#X obj 420 460 *;
#X obj 340 350 b;
#X obj 540 449 *;
#X obj 540 518 +;
#X obj 480 480 b;
#X obj 220 40 inlet;
#X text 220 20 speed;
#X text 330 20 phase;
#X obj 331 42 inlet;
#X obj 410 120 tgl 15 0 empty empty empty 17 7 0 10 #fcfcfc #000000
#000000 1 1;
#X obj 170 242 expr~ $v1 <= 0.01;
#X floatatom 540 577 5 0 0 0 - - -, f 5;
#X obj 240 360 metro;
#X obj 240 389 bng 15 250 50 0 empty empty empty 17 7 0 10 #fcfcfc
#000000 #000000;
#X obj 210 270 tgl 15 0 empty empty empty 17 7 0 10 #fcfcfc #000000
#000000 1 1;
#X msg 280 310 tempo \$1 msec;
#X obj 420 519 f;
#X obj 420 548 t f f;
#X msg 420 610 1 \$1;
#X obj 410 710 line~;
#X obj 470 590 delay;
#X obj 470 619 f;
#X msg 470 648 0 \$1;
#X obj 403 153 metro 50;
#X obj 340 252 expr abs(1 / $f1 * 1000);
#X obj 410 739 tabwrite~ tabadsr2;
#X obj 240 413 outlet;
#X connect 0 0 1 0;
#X connect 1 0 13 0;
#X connect 2 0 9 0;
#X connect 2 0 36 0;
#X connect 3 0 20 0;
#X connect 4 0 5 0;
#X connect 5 0 16 1;
#X connect 5 0 18 0;
#X connect 6 0 0 0;
#X connect 7 0 0 1;
#X connect 8 0 3 1;
#X connect 9 0 11 0;
#X connect 10 0 9 1;
#X connect 11 0 3 0;
#X connect 12 0 11 1;
#X connect 13 0 16 0;
#X connect 14 0 13 1;
#X connect 14 0 15 0;
#X connect 15 0 13 0;
#X connect 16 0 2 0;
#X connect 16 0 19 0;
#X connect 16 0 50 0;
#X connect 18 0 16 0;
#X connect 20 0 21 0;
#X connect 21 0 24 0;
#X connect 22 0 26 0;
#X connect 23 0 28 0;
#X connect 25 0 2 1;
#X connect 26 0 29 1;
#X connect 26 0 30 0;
#X connect 26 0 42 0;
#X connect 27 0 26 0;
#X connect 27 0 28 0;
#X connect 28 0 29 0;
#X connect 29 0 37 0;
#X connect 29 0 47 1;
#X connect 30 0 29 0;
#X connect 31 0 4 0;
#X connect 34 0 25 0;
#X connect 35 0 49 0;
#X connect 38 0 39 0;
#X connect 38 0 42 0;
#X connect 39 0 52 0;
#X connect 40 0 38 0;
#X connect 41 0 38 0;
#X connect 42 0 43 0;
#X connect 43 0 44 0;
#X connect 43 1 46 0;
#X connect 44 0 45 0;
#X connect 45 0 21 1;
#X connect 45 0 51 0;
#X connect 46 0 47 0;
#X connect 47 0 48 0;
#X connect 48 0 45 0;
#X connect 49 0 51 0;
#X connect 50 0 17 0;
#X connect 50 0 27 0;
#X connect 50 0 26 1;
#X connect 50 0 28 1;
#X connect 50 0 41 0;
#X restore 230 350 pd 1grain;
#X floatatom 250 300 5 0 0 0 - - -, f 5;
#X floatatom 230 270 5 0 0 0 - - -, f 5;
#N canvas 1368 33 717 840 1grain 0;
#X obj 60 56 /;
#X floatatom 60 92 5 0 0 0 - - -, f 5;
#X obj 60 212 phasor~;
#X obj 60 412 *~;
#X floatatom 220 70 5 0 0 0 - - -, f 5;
#X obj 218 101 / 100;
#X obj 60 -8 r sR;
#X obj 78 22 r size;
#X obj 99 392 r size;
#X obj 60 282 *~;
#X obj 98 262 r A;
#X obj 60 342 +~;
#X obj 102 322 r B;
#X obj 60 122 /;
#X obj 140 72 r A;
#X obj 140 101 b;
#X obj 60 151 * 1;
#X floatatom 410 281 5 0 0 0 - - -, f 5;
#X obj 218 130 b;
#X floatatom 60 180 5 0 0 0 - - -, f 5;
#X obj 60 514 tabread4~ sample;
#X obj 60 583 *~;
#X obj 420 420 inlet;
#X obj 540 420 inlet;
#X obj 60 642 outlet~;
#X floatatom 331 70 5 0 0 0 - - -, f 5;
#X obj 420 460 *;
#X obj 340 350 b;
#X obj 540 449 *;
#X obj 540 518 +;
#X obj 480 480 b;
#X obj 220 40 inlet;
#X text 220 20 speed;
#X text 330 20 phase;
#X obj 331 42 inlet;
#X obj 410 120 tgl 15 0 empty empty empty 17 7 0 10 #fcfcfc #000000
#000000 0 1;
#X obj 170 242 expr~ $v1 <= 0.01;
#X floatatom 540 577 5 0 0 0 - - -, f 5;
#X obj 240 360 metro;
#X obj 240 389 bng 15 250 50 0 empty empty empty 17 7 0 10 #fcfcfc
#000000 #000000;
#X obj 210 270 tgl 15 0 empty empty empty 17 7 0 10 #fcfcfc #000000
#000000 1 1;
#X msg 280 310 tempo \$1 msec;
#X obj 420 519 f;
#X obj 420 548 t f f;
#X msg 420 610 1 \$1;
#X obj 410 710 line~;
#X obj 470 590 delay;
#X obj 470 619 f;
#X msg 470 648 0 \$1;
#X obj 403 153 metro 50;
#X obj 340 252 expr abs(1 / $f1 * 1000);
#X obj 410 739 tabwrite~ tabadsr2;
#X obj 240 413 outlet;
#X connect 0 0 1 0;
#X connect 1 0 13 0;
#X connect 2 0 9 0;
#X connect 2 0 36 0;
#X connect 3 0 20 0;
#X connect 4 0 5 0;
#X connect 5 0 16 1;
#X connect 5 0 18 0;
#X connect 6 0 0 0;
#X connect 7 0 0 1;
#X connect 8 0 3 1;
#X connect 9 0 11 0;
#X connect 10 0 9 1;
#X connect 11 0 3 0;
#X connect 12 0 11 1;
#X connect 13 0 16 0;
#X connect 14 0 13 1;
#X connect 14 0 15 0;
#X connect 15 0 13 0;
#X connect 16 0 2 0;
#X connect 16 0 19 0;
#X connect 16 0 50 0;
#X connect 18 0 16 0;
#X connect 20 0 21 0;
#X connect 21 0 24 0;
#X connect 22 0 26 0;
#X connect 23 0 28 0;
#X connect 25 0 2 1;
#X connect 26 0 29 1;
#X connect 26 0 30 0;
#X connect 26 0 42 0;
#X connect 27 0 26 0;
#X connect 27 0 28 0;
#X connect 28 0 29 0;
#X connect 29 0 37 0;
#X connect 29 0 47 1;
#X connect 30 0 29 0;
#X connect 31 0 4 0;
#X connect 34 0 25 0;
#X connect 35 0 49 0;
#X connect 38 0 39 0;
#X connect 38 0 42 0;
#X connect 39 0 52 0;
#X connect 40 0 38 0;
#X connect 41 0 38 0;
#X connect 42 0 43 0;
#X connect 43 0 44 0;
#X connect 43 1 46 0;
#X connect 44 0 45 0;
#X connect 45 0 21 1;
#X connect 45 0 51 0;
#X connect 46 0 47 0;
#X connect 47 0 48 0;
#X connect 48 0 45 0;
#X connect 49 0 51 0;
#X connect 50 0 17 0;
#X connect 50 0 27 0;
#X connect 50 0 26 1;
#X connect 50 0 28 1;
#X connect 50 0 41 0;
#X restore 320 350 pd 1grain;
#X floatatom 340 300 5 0 0 0 - - -, f 5;
#X floatatom 320 270 5 0 0 0 - - -, f 5;
#N canvas 1368 33 717 840 1grain 0;
#X obj 60 56 /;
#X floatatom 60 92 5 0 0 0 - - -, f 5;
#X obj 60 212 phasor~;
#X obj 60 412 *~;
#X floatatom 220 70 5 0 0 0 - - -, f 5;
#X obj 218 101 / 100;
#X obj 60 -8 r sR;
#X obj 78 22 r size;
#X obj 99 392 r size;
#X obj 60 282 *~;
#X obj 98 262 r A;
#X obj 60 342 +~;
#X obj 102 322 r B;
#X obj 60 122 /;
#X obj 140 72 r A;
#X obj 140 101 b;
#X obj 60 151 * 1;
#X floatatom 410 281 5 0 0 0 - - -, f 5;
#X obj 218 130 b;
#X floatatom 60 180 5 0 0 0 - - -, f 5;
#X obj 60 514 tabread4~ sample;
#X obj 60 583 *~;
#X obj 420 420 inlet;
#X obj 540 420 inlet;
#X obj 60 642 outlet~;
#X floatatom 331 70 5 0 0 0 - - -, f 5;
#X obj 420 460 *;
#X obj 340 350 b;
#X obj 540 449 *;
#X obj 540 518 +;
#X obj 480 480 b;
#X obj 220 40 inlet;
#X text 220 20 speed;
#X text 330 20 phase;
#X obj 331 42 inlet;
#X obj 410 120 tgl 15 0 empty empty empty 17 7 0 10 #fcfcfc #000000
#000000 0 1;
#X obj 170 242 expr~ $v1 <= 0.01;
#X floatatom 540 577 5 0 0 0 - - -, f 5;
#X obj 240 360 metro;
#X obj 240 389 bng 15 250 50 0 empty empty empty 17 7 0 10 #fcfcfc
#000000 #000000;
#X obj 210 270 tgl 15 0 empty empty empty 17 7 0 10 #fcfcfc #000000
#000000 1 1;
#X msg 280 310 tempo \$1 msec;
#X obj 420 519 f;
#X obj 420 548 t f f;
#X msg 420 610 1 \$1;
#X obj 410 710 line~;
#X obj 470 590 delay;
#X obj 470 619 f;
#X msg 470 648 0 \$1;
#X obj 403 153 metro 50;
#X obj 340 252 expr abs(1 / $f1 * 1000);
#X obj 410 739 tabwrite~ tabadsr2;
#X obj 240 413 outlet;
#X connect 0 0 1 0;
#X connect 1 0 13 0;
#X connect 2 0 9 0;
#X connect 2 0 36 0;
#X connect 3 0 20 0;
#X connect 4 0 5 0;
#X connect 5 0 16 1;
#X connect 5 0 18 0;
#X connect 6 0 0 0;
#X connect 7 0 0 1;
#X connect 8 0 3 1;
#X connect 9 0 11 0;
#X connect 10 0 9 1;
#X connect 11 0 3 0;
#X connect 12 0 11 1;
#X connect 13 0 16 0;
#X connect 14 0 13 1;
#X connect 14 0 15 0;
#X connect 15 0 13 0;
#X connect 16 0 2 0;
#X connect 16 0 19 0;
#X connect 16 0 50 0;
#X connect 18 0 16 0;
#X connect 20 0 21 0;
#X connect 21 0 24 0;
#X connect 22 0 26 0;
#X connect 23 0 28 0;
#X connect 25 0 2 1;
#X connect 26 0 29 1;
#X connect 26 0 30 0;
#X connect 26 0 42 0;
#X connect 27 0 26 0;
#X connect 27 0 28 0;
#X connect 28 0 29 0;
#X connect 29 0 37 0;
#X connect 29 0 47 1;
#X connect 30 0 29 0;
#X connect 31 0 4 0;
#X connect 34 0 25 0;
#X connect 35 0 49 0;
#X connect 38 0 39 0;
#X connect 38 0 42 0;
#X connect 39 0 52 0;
#X connect 40 0 38 0;
#X connect 41 0 38 0;
#X connect 42 0 43 0;
#X connect 43 0 44 0;
#X connect 43 1 46 0;
#X connect 44 0 45 0;
#X connect 45 0 21 1;
#X connect 45 0 51 0;
#X connect 46 0 47 0;
#X connect 47 0 48 0;
#X connect 48 0 45 0;
#X connect 49 0 51 0;
#X connect 50 0 17 0;
#X connect 50 0 27 0;
#X connect 50 0 26 1;
#X connect 50 0 28 1;
#X connect 50 0 41 0;
#X restore 410 350 pd 1grain;
#X floatatom 430 300 5 0 0 0 - - -, f 5;
#X floatatom 410 270 5 0 0 0 - - -, f 5;
#X obj 110 380 bng 15 250 50 0 empty empty empty 17 7 0 10 #fcfcfc
#000000 #000000;
#X obj 200 380 bng 15 250 50 0 empty empty empty 17 7 0 10 #fcfcfc
#000000 #000000;
#X obj 290 380 bng 15 250 50 0 empty empty empty 17 7 0 10 #fcfcfc
#000000 #000000;
#X obj 380 380 bng 15 250 50 0 empty empty empty 17 7 0 10 #fcfcfc
#000000 #000000;
#X obj 470 380 bng 15 250 50 0 empty empty empty 17 7 0 10 #fcfcfc
#000000 #000000;
#X connect 0 0 2 0;
#X connect 0 0 2 1;
#X connect 1 0 0 1;
#X connect 3 0 7 0;
#X connect 3 0 9 0;
#X connect 3 1 6 0;
#X connect 5 0 3 0;
#X connect 6 0 8 0;
#X connect 10 0 14 0;
#X connect 10 0 18 0;
#X connect 12 0 15 0;
#X connect 12 0 19 0;
#X connect 15 0 17 0;
#X connect 15 0 20 0;
#X connect 16 0 15 1;
#X connect 16 0 21 0;
#X connect 21 0 15 0;
#X connect 22 0 26 2;
#X connect 22 0 29 2;
#X connect 22 0 32 2;
#X connect 22 0 35 2;
#X connect 22 0 38 2;
#X connect 23 0 26 3;
#X connect 23 0 29 3;
#X connect 23 0 32 3;
#X connect 23 0 35 3;
#X connect 23 0 38 3;
#X connect 26 0 0 0;
#X connect 26 1 41 0;
#X connect 27 0 26 1;
#X connect 28 0 26 0;
#X connect 29 0 0 0;
#X connect 29 1 42 0;
#X connect 30 0 29 1;
#X connect 31 0 29 0;
#X connect 32 0 0 0;
#X connect 32 1 43 0;
#X connect 33 0 32 1;
#X connect 34 0 32 0;
#X connect 35 0 0 0;
#X connect 35 1 44 0;
#X connect 36 0 35 1;
#X connect 37 0 35 0;
#X connect 38 0 0 0;
#X connect 38 1 45 0;
#X connect 39 0 38 1;
#X connect 40 0 38 0;
