#N canvas 2327 33 957 1020 12;
#X obj 57 371 vsl 20 170 0 1 0 0 empty empty empty 0 -9 0 12 #fcfcfc
#000000 #000000 16900 1;
#X obj 121 544 *~;
#X obj 120 447 vcf~;
#X obj 577 128 vsl 20 170 50 5000 1 0 empty empty empty 0 -9 0 12 #fcfcfc
#000000 #000000 6076 1;
#X obj 739 274 vsl 20 170 1 20 0 0 empty empty empty 0 -9 0 12 #fcfcfc
#000000 #000000 712 1;
#X obj 577 311 sig~;
#X obj 121 599 outlet~;
#X obj 475 39 inlet;
#X text 473 13 Intensity;
#X obj 200 549 inlet;
#X obj 219 569 tgl 20 0 empty empty empty 0 -10 0 12 #fcfcfc #000000
#000000 1 1;
#X floatatom 623 301 5 0 0 0 - - -, f 5;
#X floatatom 739 452 5 0 0 0 - - -, f 5;
#X obj 121 569 *~;
#X obj 778 230 loadbang;
#N canvas 1368 33 957 1045 JazOsc 1;
#X obj 56 377 phasor~;
#X obj 59 275 hsl 170 20 0 127 0 0 empty empty empty -2 -10 0 12 #fcfcfc
#000000 #000000 5899 1;
#X obj 56 300 mtof;
#X obj 56 412 *~;
#X obj 17 259 vsl 20 170 0 1 0 0 empty empty empty 0 -9 0 12 #fcfcfc
#000000 #000000 16900 1;
#X obj 286 377 phasor~;
#X obj 289 275 hsl 170 20 0 127 0 0 empty empty empty -2 -10 0 12 #fcfcfc
#000000 #000000 7099 1;
#X obj 286 300 mtof;
#X obj 286 412 *~;
#X obj 247 259 vsl 20 170 0 1 0 0 empty empty empty 0 -9 0 12 #fcfcfc
#000000 #000000 11492 1;
#X obj 526 377 phasor~;
#X obj 529 275 hsl 170 20 0 127 0 0 empty empty empty -2 -10 0 12 #fcfcfc
#000000 #000000 4999 1;
#X obj 526 300 mtof;
#X obj 526 412 *~;
#X obj 487 259 vsl 20 170 0 1 0 0 empty empty empty 0 -9 0 12 #fcfcfc
#000000 #000000 16900 1;
#X floatatom 136 295 5 0 0 0 - - -, f 5;
#X obj 852 54 bng 20 250 50 0 empty empty empty 0 -10 0 12 #fcfcfc
#000000 #000000;
#X floatatom 366 295 5 0 0 0 - - -, f 5;
#X floatatom 616 295 5 0 0 0 - - -, f 5;
#X obj 56 240 44.33;
#X obj 526 238 37.57;
#X obj 286 246 53.35;
#X floatatom 536 325 5 0 0 0 - - -, f 5;
#X floatatom 296 325 5 0 0 0 - - -, f 5;
#X floatatom 66 325 5 0 0 0 - - -, f 5;
#X obj 770 371 phasor~;
#X obj 773 269 hsl 170 20 0 127 0 0 empty empty empty -2 -10 0 12 #fcfcfc
#000000 #000000 10689 1;
#X obj 770 294 mtof;
#X obj 770 406 *~;
#X obj 731 253 vsl 20 170 0 1 0 0 empty empty empty 0 -9 0 12 #fcfcfc
#000000 #000000 8197 1;
#X floatatom 860 289 5 0 0 0 - - -, f 5;
#X floatatom 780 319 5 0 0 0 - - -, f 5;
#X obj 848 201 ftom;
#X obj 846 162 846.4;
#X obj 1040 371 phasor~;
#X obj 1043 269 hsl 170 20 0 127 0 0 empty empty empty -2 -10 0 12
#fcfcfc #000000 #000000 10292 1;
#X obj 1040 294 mtof;
#X obj 1040 406 *~;
#X obj 1001 253 vsl 20 170 0 1 0 0 empty empty empty 0 -9 0 12 #fcfcfc
#000000 #000000 7098 1;
#X floatatom 1130 289 5 0 0 0 - - -, f 5;
#X floatatom 1050 319 5 0 0 0 - - -, f 5;
#X obj 1118 201 ftom;
#X obj 1116 162 712.4;
#X floatatom 848 226 5 0 0 0 - - -, f 5;
#X floatatom 1118 226 5 0 0 0 - - -, f 5;
#X floatatom 17 437 5 0 0 0 - - -, f 5;
#X floatatom 247 437 5 0 0 0 - - -, f 5;
#X floatatom 487 437 5 0 0 0 - - -, f 5;
#X floatatom 731 431 5 0 0 0 - - -, f 5;
#X floatatom 1001 431 5 0 0 0 - - -, f 5;
#X obj 17 219 1;
#X obj 487 219 1;
#X obj 247 222 0.68;
#X obj 731 219 0.485;
#X obj 999 211 0.42;
#X obj 56 567 outlet~;
#X obj 182 41 inlet;
#X obj 183 86 * 1.4774;
#X obj 262 86 * 2.4871;
#X obj 352 86 * 11.95;
#X obj 432 86 * 9.9483;
#X obj 844 21 loadbang;
#X connect 0 0 3 0;
#X connect 1 0 2 0;
#X connect 1 0 15 0;
#X connect 2 0 0 0;
#X connect 2 0 24 0;
#X connect 3 0 55 0;
#X connect 4 0 3 1;
#X connect 4 0 45 0;
#X connect 5 0 8 0;
#X connect 6 0 7 0;
#X connect 6 0 17 0;
#X connect 7 0 5 0;
#X connect 7 0 23 0;
#X connect 8 0 55 0;
#X connect 9 0 8 1;
#X connect 9 0 46 0;
#X connect 10 0 13 0;
#X connect 11 0 12 0;
#X connect 11 0 18 0;
#X connect 12 0 10 0;
#X connect 12 0 22 0;
#X connect 13 0 55 0;
#X connect 14 0 13 1;
#X connect 14 0 47 0;
#X connect 16 0 19 0;
#X connect 16 0 21 0;
#X connect 16 0 33 0;
#X connect 16 0 42 0;
#X connect 16 0 32 0;
#X connect 16 0 54 0;
#X connect 16 0 53 0;
#X connect 16 0 51 0;
#X connect 16 0 52 0;
#X connect 16 0 50 0;
#X connect 16 0 20 0;
#X connect 19 0 1 0;
#X connect 20 0 11 0;
#X connect 21 0 6 0;
#X connect 25 0 28 0;
#X connect 26 0 27 0;
#X connect 26 0 30 0;
#X connect 27 0 25 0;
#X connect 27 0 31 0;
#X connect 28 0 55 0;
#X connect 29 0 28 1;
#X connect 29 0 48 0;
#X connect 32 0 43 0;
#X connect 33 0 32 0;
#X connect 34 0 37 0;
#X connect 35 0 36 0;
#X connect 35 0 39 0;
#X connect 36 0 34 0;
#X connect 36 0 40 0;
#X connect 37 0 55 0;
#X connect 38 0 37 1;
#X connect 38 0 49 0;
#X connect 41 0 44 0;
#X connect 42 0 41 0;
#X connect 43 0 26 0;
#X connect 44 0 35 0;
#X connect 50 0 4 0;
#X connect 51 0 14 0;
#X connect 52 0 9 0;
#X connect 53 0 29 0;
#X connect 54 0 38 0;
#X connect 56 0 10 0;
#X connect 56 0 57 0;
#X connect 56 0 58 0;
#X connect 56 0 59 0;
#X connect 56 0 60 0;
#X connect 56 0 22 0;
#X connect 57 0 0 0;
#X connect 57 0 24 0;
#X connect 58 0 5 0;
#X connect 58 0 23 0;
#X connect 59 0 25 0;
#X connect 59 0 31 0;
#X connect 60 0 34 0;
#X connect 60 0 40 0;
#X connect 61 0 16 0;
#X restore 120 340 pd JazOsc;
#X text 197 529 absolute On;
#X obj 330 134 71.61;
#X obj 330 97 bng 20 250 50 0 empty empty empty 0 -10 0 12 #fcfcfc
#000000 #000000;
#X obj 120 70 inlet;
#X text 118 47 Freq;
#X obj 475 312 osc~;
#X obj 475 367 +~;
#X obj 475 337 *~;
#X obj 475 129 vsl 20 170 0 20 0 0 empty empty empty 0 -9 0 12 #fcfcfc
#000000 #000000 157 1;
#X obj 531 129 vsl 20 170 0 500 0 0 empty empty empty 0 -9 0 12 #fcfcfc
#000000 #000000 3780 1;
#X obj 531 312 sig~;
#X obj 330 70 loadbang;
#X obj 531 74 expr 300 * $f1;
#X obj 577 101 + 150;
#X obj 778 252 1.8;
#X msg 120 280 \$1 1000;
#X obj 120 305 line;
#X obj 120 95 expr $f1*1000;
#X obj 475 74 * 0.5;
#X obj 57 335 inlet;
#X text 55 312 Volume;
#X obj 240 70 inlet;
#X floatatom 210 340 5 0 0 0 - - -, f 5;
#X obj 240 99 < 0.6;
#X obj 240 128 tgl 15 0 empty empty empty 17 7 0 10 #fcfcfc #000000
#000000 0 1;
#X floatatom 240 170 5 0 0 0 - - -, f 5;
#X obj 120 220 expr $f1 * $f2 + $f3 * (1-$f2);
#X obj 330 163 b;
#X obj 270 150 b;
#X connect 0 0 1 1;
#X connect 1 0 13 0;
#X connect 2 0 1 0;
#X connect 3 0 5 0;
#X connect 3 0 11 0;
#X connect 4 0 2 2;
#X connect 4 0 12 0;
#X connect 5 0 22 1;
#X connect 7 0 28 0;
#X connect 7 0 34 0;
#X connect 9 0 10 0;
#X connect 9 0 13 1;
#X connect 13 0 6 0;
#X connect 14 0 30 0;
#X connect 15 0 2 0;
#X connect 17 0 42 2;
#X connect 17 0 43 0;
#X connect 18 0 17 0;
#X connect 19 0 33 0;
#X connect 21 0 23 0;
#X connect 22 0 2 1;
#X connect 23 0 22 0;
#X connect 24 0 21 0;
#X connect 25 0 23 1;
#X connect 25 0 26 0;
#X connect 26 0 22 1;
#X connect 27 0 18 0;
#X connect 28 0 25 0;
#X connect 28 0 29 0;
#X connect 29 0 3 0;
#X connect 30 0 4 0;
#X connect 31 0 32 0;
#X connect 32 0 38 0;
#X connect 32 0 15 0;
#X connect 33 0 42 0;
#X connect 34 0 24 0;
#X connect 35 0 0 0;
#X connect 37 0 39 0;
#X connect 39 0 18 0;
#X connect 39 0 40 0;
#X connect 39 0 41 0;
#X connect 39 0 42 1;
#X connect 39 0 44 0;
#X connect 42 0 31 0;
#X connect 43 0 42 0;
#X connect 44 0 42 0;
