#N canvas 0 34 1025 704 12;
#N canvas 1366 34 1249 1016 FMBellOsc 0;
#X obj 247 578 osc~;
#X obj 96 659 *~;
#X obj 246 921 *~;
#X obj 351 809 vsl 20 170 0 1 0 0 empty empty empty 0 -9 0 12 #fcfcfc #000000 #000000 0 1;
#X obj 263 484 *~;
#X obj 246 550 +~;
#X obj 681 591 vline~;
#X obj 245 961 outlet~;
#X obj 699 169 vsl 20 170 0.1 1000 0 0 empty empty empty 0 -9 0 12 #fcfcfc #000000 #000000 0 1;
#X floatatom 681 492 5 0 0 0 - - - 0;
#X obj 780 169 vsl 20 170 0.1 10000 0 0 empty empty empty 0 -9 0 12 #fcfcfc #000000 #000000 0 1;
#X obj 780 472 f;
#X obj 681 461 f;
#X floatatom 780 497 5 0 0 0 - - - 0;
#X obj 681 516 pack;
#X msg 681 541 1 \$1 \, 0 \$2 \$1;
#X floatatom 719 342 5 0 0 0 - - - 0;
#X obj 623 292 bng 50 250 50 0 empty empty empty 0 -10 0 12 #fcfcfc #000000 #000000;
#X obj 247 659 *~;
#X obj 337 486 vsl 20 170 0 0.33 0 0 empty empty empty 0 -9 0 12 #fcfcfc #000000 #000000 0 1;
#X floatatom 337 660 5 0 0 0 - - - 0;
#X obj 97 578 osc~;
#X obj 113 484 *~;
#X obj 96 550 +~;
#X obj 97 612 *~;
#X obj 186 486 vsl 20 170 0 0.33 0 0 empty empty empty 0 -9 0 12 #fcfcfc #000000 #000000 0 1;
#X floatatom 186 660 5 0 0 0 - - - 0;
#X floatatom 73 464 5 0 0 0 - - - 0;
#X floatatom 223 464 5 0 0 0 - - - 0;
#X obj 397 578 osc~;
#X obj 413 484 *~;
#X obj 396 550 +~;
#X obj 397 659 *~;
#X obj 487 486 vsl 20 170 0 0.33 0 0 empty empty empty 0 -9 0 12 #fcfcfc #000000 #000000 0 1;
#X floatatom 487 660 5 0 0 0 - - - 0;
#X obj 114 141 r~ o1;
#X obj 136 659 s~ o1;
#X obj 287 659 s~ o2;
#X obj 437 659 s~ o3;
#X obj 114 296 *~;
#X obj 264 296 *~;
#X obj 414 296 *~;
#X floatatom 132 269 5 0 0 0 - - - 0;
#X floatatom 282 269 5 0 0 0 - - - 0;
#X floatatom 432 269 5 0 0 0 - - - 0;
#X obj 164 296 *~;
#X obj 314 296 *~;
#X obj 464 296 *~;
#X floatatom 182 269 5 0 0 0 - - - 0;
#X floatatom 332 269 5 0 0 0 - - - 0;
#X floatatom 482 269 5 0 0 0 - - - 0;
#X obj 214 296 *~;
#X obj 364 296 *~;
#X obj 514 296 *~;
#X floatatom 232 269 5 0 0 0 - - - 0;
#X floatatom 382 269 5 0 0 0 - - - 0;
#X floatatom 532 269 5 0 0 0 - - - 0;
#X obj 164 141 r~ o2;
#X obj 214 141 r~ o3;
#X obj 114 341 +~;
#X obj 264 341 +~;
#X obj 414 341 +~;
#X floatatom 131 430 5 0 0 0 - - - 0;
#X floatatom 281 430 5 0 0 0 - - - 0;
#X floatatom 431 430 5 0 0 0 - - - 0;
#X obj 73 488 s fo1;
#X obj 223 408 r fo1;
#X obj 223 513 *;
#X floatatom 373 465 5 0 0 0 - - - 0;
#X obj 373 408 r fo1;
#X obj 373 513 *;
#X obj 73 33 inlet;
#X text 73 13 freq;
#X text 113 13 mult osc 2;
#X text 203 13 mult osc 3;
#X obj 113 88 s mo2;
#X obj 154 88 s mo3;
#X obj 223 438 r mo2;
#X obj 373 438 r mo3;
#X obj 623 33 inlet;
#X text 623 13 trigger;
#X obj 223 487 b;
#X obj 373 489 b;
#X obj 861 169 vsl 20 170 0.1 1000 0 0 empty empty empty 0 -9 0 12 #fcfcfc #000000 #000000 0 1;
#X floatatom 843 492 5 0 0 0 - - - 0;
#X obj 942 169 vsl 20 170 0.1 10000 0 0 empty empty empty 0 -9 0 12 #fcfcfc #000000 #000000 0 1;
#X obj 942 472 f;
#X obj 843 461 f;
#X floatatom 942 497 5 0 0 0 - - - 0;
#X obj 843 516 pack;
#X msg 843 541 1 \$1 \, 0 \$2 \$1;
#X floatatom 881 342 5 0 0 0 - - - 0;
#X obj 1023 169 vsl 20 170 0.1 1000 0 0 empty empty empty 0 -9 0 12 #fcfcfc #000000 #000000 0 1;
#X floatatom 1005 492 5 0 0 0 - - - 0;
#X obj 1104 169 vsl 20 170 0.1 10000 0 0 empty empty empty 0 -9 0 12 #fcfcfc #000000 #000000 0 1;
#X obj 1104 472 f;
#X obj 1005 461 f;
#X floatatom 1104 497 5 0 0 0 - - - 0;
#X obj 1005 516 pack;
#X msg 1005 541 1 \$1 \, 0 \$2 \$1;
#X floatatom 1043 342 5 0 0 0 - - - 0;
#X obj 843 591 vline~;
#X obj 1005 591 vline~;
#X floatatom 800 342 5 0 0 0 - - - 0;
#X floatatom 962 342 5 0 0 0 - - - 0;
#X floatatom 1124 342 5 0 0 0 - - - 0;
#X obj 780 418 *;
#X floatatom 1186 399 5 0 0 0 - - - 0;
#X floatatom 805 438 5 0 0 0 - - - 0;
#X obj 1145 398 b;
#X obj 942 418 *;
#X floatatom 967 438 5 0 0 0 - - - 0;
#X obj 1199 379 bng 20 250 50 0 empty empty empty 0 -10 0 12 #fcfcfc #000000 #000000;
#X obj 1104 418 *;
#X floatatom 1129 438 5 0 0 0 - - - 0;
#X obj 699 33 inlet;
#X obj 73 58 unpack f f f;
#X obj 303 33 inlet;
#X text 303 13 modulations;
#X obj 699 58 unpack f f f f f f f, f 70;
#X text 689 13 Attack Decay & Global Decay;
#X text 1184 416 global Decay;
#X obj 681 616 s~ eo1;
#X obj 843 616 s~ eo2;
#X obj 1005 616 s~ eo3;
#X obj 137 578 r~ eo1;
#X obj 247 613 *~;
#X obj 287 578 r~ eo2;
#X obj 397 613 *~;
#X obj 437 578 r~ eo3;
#X obj 303 138 unpack f f f f f f f f f f f f f f f;
#X text 319 83 9 premier args : mod matrix \; FM amount osc 1 \, 2 \, 3 \; volume osc 1 \, 2 \, 3;
#X obj 351 774 inlet;
#X text 349 754 volume;
#X connect 0 0 126 0;
#X connect 1 0 2 0;
#X connect 2 0 7 0;
#X connect 3 0 2 1;
#X connect 4 0 5 1;
#X connect 5 0 0 0;
#X connect 6 0 122 0;
#X connect 8 0 16 0;
#X connect 8 0 12 1;
#X connect 9 0 14 0;
#X connect 10 0 103 0;
#X connect 10 0 106 0;
#X connect 11 0 13 0;
#X connect 12 0 9 0;
#X connect 13 0 14 1;
#X connect 14 0 15 0;
#X connect 15 0 6 0;
#X connect 17 0 12 0;
#X connect 17 0 87 0;
#X connect 17 0 96 0;
#X connect 18 0 2 0;
#X connect 19 0 18 1;
#X connect 19 0 20 0;
#X connect 21 0 24 0;
#X connect 22 0 23 1;
#X connect 23 0 21 0;
#X connect 24 0 1 0;
#X connect 24 0 36 0;
#X connect 25 0 26 0;
#X connect 25 0 1 1;
#X connect 27 0 23 0;
#X connect 27 0 65 0;
#X connect 28 0 67 1;
#X connect 28 0 81 0;
#X connect 29 0 128 0;
#X connect 30 0 31 1;
#X connect 31 0 29 0;
#X connect 32 0 2 0;
#X connect 33 0 32 1;
#X connect 33 0 34 0;
#X connect 35 0 39 0;
#X connect 35 0 40 0;
#X connect 35 0 41 0;
#X connect 39 0 59 0;
#X connect 40 0 60 0;
#X connect 41 0 61 0;
#X connect 42 0 39 1;
#X connect 43 0 40 1;
#X connect 44 0 41 1;
#X connect 45 0 59 1;
#X connect 46 0 60 1;
#X connect 47 0 61 1;
#X connect 48 0 45 1;
#X connect 49 0 46 1;
#X connect 50 0 47 1;
#X connect 51 0 59 1;
#X connect 52 0 60 1;
#X connect 53 0 61 1;
#X connect 54 0 51 1;
#X connect 55 0 52 1;
#X connect 56 0 53 1;
#X connect 57 0 45 0;
#X connect 57 0 46 0;
#X connect 57 0 47 0;
#X connect 58 0 51 0;
#X connect 58 0 52 0;
#X connect 58 0 53 0;
#X connect 59 0 22 0;
#X connect 60 0 4 0;
#X connect 61 0 30 0;
#X connect 62 0 22 1;
#X connect 63 0 4 1;
#X connect 64 0 30 1;
#X connect 66 0 67 0;
#X connect 67 0 5 0;
#X connect 68 0 70 1;
#X connect 68 0 82 0;
#X connect 69 0 70 0;
#X connect 70 0 31 0;
#X connect 71 0 116 0;
#X connect 77 0 28 0;
#X connect 78 0 68 0;
#X connect 79 0 17 0;
#X connect 81 0 67 0;
#X connect 82 0 70 0;
#X connect 83 0 87 1;
#X connect 83 0 91 0;
#X connect 84 0 89 0;
#X connect 85 0 104 0;
#X connect 85 0 110 0;
#X connect 86 0 88 0;
#X connect 87 0 84 0;
#X connect 88 0 89 1;
#X connect 89 0 90 0;
#X connect 90 0 101 0;
#X connect 92 0 96 1;
#X connect 92 0 100 0;
#X connect 93 0 98 0;
#X connect 94 0 105 0;
#X connect 94 0 113 0;
#X connect 95 0 97 0;
#X connect 96 0 93 0;
#X connect 97 0 98 1;
#X connect 98 0 99 0;
#X connect 99 0 102 0;
#X connect 101 0 123 0;
#X connect 102 0 124 0;
#X connect 106 0 108 0;
#X connect 106 0 11 0;
#X connect 107 0 106 1;
#X connect 107 0 109 0;
#X connect 107 0 110 1;
#X connect 107 0 113 1;
#X connect 109 0 106 0;
#X connect 109 0 110 0;
#X connect 109 0 113 0;
#X connect 110 0 86 0;
#X connect 110 0 111 0;
#X connect 112 0 107 0;
#X connect 113 0 114 0;
#X connect 113 0 95 0;
#X connect 115 0 119 0;
#X connect 116 0 27 0;
#X connect 116 1 75 0;
#X connect 116 2 76 0;
#X connect 117 0 130 0;
#X connect 119 0 8 0;
#X connect 119 1 10 0;
#X connect 119 2 83 0;
#X connect 119 3 85 0;
#X connect 119 4 92 0;
#X connect 119 5 94 0;
#X connect 119 6 107 0;
#X connect 125 0 24 1;
#X connect 126 0 18 0;
#X connect 126 0 37 0;
#X connect 127 0 126 1;
#X connect 128 0 32 0;
#X connect 128 0 38 0;
#X connect 129 0 128 1;
#X connect 130 0 42 0;
#X connect 130 1 48 0;
#X connect 130 2 54 0;
#X connect 130 3 43 0;
#X connect 130 4 49 0;
#X connect 130 5 55 0;
#X connect 130 6 44 0;
#X connect 130 7 50 0;
#X connect 130 8 56 0;
#X connect 130 9 62 0;
#X connect 130 10 63 0;
#X connect 130 11 64 0;
#X connect 130 12 25 0;
#X connect 130 13 19 0;
#X connect 130 14 33 0;
#X connect 132 0 3 0;
#X restore 109 742 pd FMBellOsc;
#X obj 69 702 bng 40 250 50 0 empty empty empty 0 -10 0 12 #fcfcfc #000000 #000000;
#X obj 648 34 bng 20 250 50 0 empty empty empty 0 -10 0 12 #fcfcfc #000000 #000000;
#X text 677 31 preset 1;
#X msg 648 129 5.129 1775 3.294 1716 5.365 1775 0.75;
#X obj 648 186 bng 20 250 50 0 empty empty empty 0 -10 0 12 #fcfcfc #000000 #000000;
#X text 677 185 preset 2;
#X msg 648 211 103.8 2.73 3.34;
#X msg 648 263 41.51 887.6 59.26 1006 53.34 946.8 1;
#X msg 648 237 0 0.65 0.63 1 0 1 0 0.78 0 0 73.74 95 0 0.61 0.154;
#X msg 648 60 431 2.49 3.34;
#X msg 648 87 0 0.72 0.41 0.54 0 0.57 0.46 0.74 0 398 74.74 31 0.253 0.203 0.224;
#X obj 111 889 +~;
#N canvas 1366 34 1249 1016 preset_interpolation 0;
#X obj 12 69 inlet;
#X text 37 41 Preset 1;
#X obj 361 69 inlet;
#X obj 102 69 inlet;
#X obj 12 94 unpack f f f;
#X obj 102 94 unpack f f f f f f f f f f f f f f f;
#X obj 361 94 unpack f f f f f f f;
#X obj 512 69 inlet;
#X obj 861 69 inlet;
#X obj 603 68 inlet;
#X obj 512 94 unpack f f f;
#X obj 603 93 unpack f f f f f f f f f f f f f f f;
#X obj 861 94 unpack f f f f f f f;
#X text 537 41 Preset 2;
#X obj 1311 87 inlet;
#X text 1314 55 morph;
#X obj 1318 155 s itpm;
#X obj 12 834 pack f f f;
#X obj 182 834 pack f f f f f f f f f f f f f f f;
#X obj 529 830 pack f f f f f f f;
#X obj 12 859 outlet;
#X obj 182 859 outlet;
#X obj 529 855 outlet;
#X floatatom 1026 512 5 0 0 0 - - - 0;
#X floatatom 1109 516 5 0 0 0 - - - 0;
#X floatatom 1032 589 5 0 0 0 - - - 0;
#X obj 1181 314 vsl 20 170 0 1 0 0 empty empty empty 0 -9 0 12 #fcfcfc #000000 #000000 0 1;
#X obj 1181 492 b;
#X obj 1032 564 expr ($f2-$f1)*$f3+$f1;
#X obj 1306 225 vsl 20 170 0 1 0 0 empty empty empty 0 -9 0 12 #fcfcfc #000000 #000000 0 1;
#X obj 1311 112 b;
#X obj 1311 137 bng 20 250 50 0 empty empty empty 0 -10 0 12 #fcfcfc #000000 #000000;
#N canvas 1366 34 1249 1016 itpclc 0;
#X obj 158 202 inlet;
#X obj 228 202 inlet;
#X obj 121 270 expr ($f3 - $f2)*$f1 + $f2;
#X obj 121 295 outlet;
#X obj 102 206 r itpm;
#X connect 0 0 2 1;
#X connect 1 0 2 2;
#X connect 2 0 3 0;
#X connect 4 0 2 0;
#X restore 12 182 pd itpclc;
#N canvas 1366 34 1249 1016 itpclc 0;
#X obj 158 202 inlet;
#X obj 228 202 inlet;
#X obj 121 270 expr ($f3 - $f2)*$f1 + $f2;
#X obj 121 295 outlet;
#X obj 102 206 r itpm;
#X connect 0 0 2 1;
#X connect 1 0 2 2;
#X connect 2 0 3 0;
#X connect 4 0 2 0;
#X restore 45 212 pd itpclc;
#N canvas 1366 34 1249 1016 itpclc 0;
#X obj 158 202 inlet;
#X obj 228 202 inlet;
#X obj 121 270 expr ($f3 - $f2)*$f1 + $f2;
#X obj 121 295 outlet;
#X obj 102 206 r itpm;
#X connect 0 0 2 1;
#X connect 1 0 2 2;
#X connect 2 0 3 0;
#X connect 4 0 2 0;
#X restore 79 242 pd itpclc;
#N canvas 1366 34 1249 1016 itpclc 0;
#X obj 158 202 inlet;
#X obj 228 202 inlet;
#X obj 121 270 expr ($f3 - $f2)*$f1 + $f2;
#X obj 121 295 outlet;
#X obj 102 206 r itpm;
#X connect 0 0 2 1;
#X connect 1 0 2 2;
#X connect 2 0 3 0;
#X connect 4 0 2 0;
#X restore 182 292 pd itpclc;
#N canvas 1366 34 1249 1016 itpclc 0;
#X obj 158 202 inlet;
#X obj 228 202 inlet;
#X obj 121 270 expr ($f3 - $f2)*$f1 + $f2;
#X obj 121 295 outlet;
#X obj 102 206 r itpm;
#X connect 0 0 2 1;
#X connect 1 0 2 2;
#X connect 2 0 3 0;
#X connect 4 0 2 0;
#X restore 198 322 pd itpclc;
#N canvas 1366 34 1249 1016 itpclc 0;
#X obj 158 202 inlet;
#X obj 228 202 inlet;
#X obj 121 270 expr ($f3 - $f2)*$f1 + $f2;
#X obj 121 295 outlet;
#X obj 102 206 r itpm;
#X connect 0 0 2 1;
#X connect 1 0 2 2;
#X connect 2 0 3 0;
#X connect 4 0 2 0;
#X restore 215 352 pd itpclc;
#N canvas 1366 34 1249 1016 itpclc 0;
#X obj 158 202 inlet;
#X obj 228 202 inlet;
#X obj 121 270 expr ($f3 - $f2)*$f1 + $f2;
#X obj 121 295 outlet;
#X obj 102 206 r itpm;
#X connect 0 0 2 1;
#X connect 1 0 2 2;
#X connect 2 0 3 0;
#X connect 4 0 2 0;
#X restore 232 382 pd itpclc;
#N canvas 1366 34 1249 1016 itpclc 0;
#X obj 158 202 inlet;
#X obj 228 202 inlet;
#X obj 121 270 expr ($f3 - $f2)*$f1 + $f2;
#X obj 121 295 outlet;
#X obj 102 206 r itpm;
#X connect 0 0 2 1;
#X connect 1 0 2 2;
#X connect 2 0 3 0;
#X connect 4 0 2 0;
#X restore 249 412 pd itpclc;
#N canvas 1366 34 1249 1016 itpclc 0;
#X obj 158 202 inlet;
#X obj 228 202 inlet;
#X obj 121 270 expr ($f3 - $f2)*$f1 + $f2;
#X obj 121 295 outlet;
#X obj 102 206 r itpm;
#X connect 0 0 2 1;
#X connect 1 0 2 2;
#X connect 2 0 3 0;
#X connect 4 0 2 0;
#X restore 265 442 pd itpclc;
#N canvas 1366 34 1249 1016 itpclc 0;
#X obj 158 202 inlet;
#X obj 228 202 inlet;
#X obj 121 270 expr ($f3 - $f2)*$f1 + $f2;
#X obj 121 295 outlet;
#X obj 102 206 r itpm;
#X connect 0 0 2 1;
#X connect 1 0 2 2;
#X connect 2 0 3 0;
#X connect 4 0 2 0;
#X restore 282 472 pd itpclc;
#N canvas 1366 34 1249 1016 itpclc 0;
#X obj 158 202 inlet;
#X obj 228 202 inlet;
#X obj 121 270 expr ($f3 - $f2)*$f1 + $f2;
#X obj 121 295 outlet;
#X obj 102 206 r itpm;
#X connect 0 0 2 1;
#X connect 1 0 2 2;
#X connect 2 0 3 0;
#X connect 4 0 2 0;
#X restore 299 502 pd itpclc;
#N canvas 1366 34 1249 1016 itpclc 0;
#X obj 158 202 inlet;
#X obj 228 202 inlet;
#X obj 121 270 expr ($f3 - $f2)*$f1 + $f2;
#X obj 121 295 outlet;
#X obj 102 206 r itpm;
#X connect 0 0 2 1;
#X connect 1 0 2 2;
#X connect 2 0 3 0;
#X connect 4 0 2 0;
#X restore 316 532 pd itpclc;
#N canvas 1366 34 1249 1016 itpclc 0;
#X obj 158 202 inlet;
#X obj 228 202 inlet;
#X obj 121 270 expr ($f3 - $f2)*$f1 + $f2;
#X obj 121 295 outlet;
#X obj 102 206 r itpm;
#X connect 0 0 2 1;
#X connect 1 0 2 2;
#X connect 2 0 3 0;
#X connect 4 0 2 0;
#X restore 332 562 pd itpclc;
#N canvas 1366 34 1249 1016 itpclc 0;
#X obj 158 202 inlet;
#X obj 228 202 inlet;
#X obj 121 270 expr ($f3 - $f2)*$f1 + $f2;
#X obj 121 295 outlet;
#X obj 102 206 r itpm;
#X connect 0 0 2 1;
#X connect 1 0 2 2;
#X connect 2 0 3 0;
#X connect 4 0 2 0;
#X restore 349 592 pd itpclc;
#N canvas 1366 34 1249 1016 itpclc 0;
#X obj 158 202 inlet;
#X obj 228 202 inlet;
#X obj 121 270 expr ($f3 - $f2)*$f1 + $f2;
#X obj 121 295 outlet;
#X obj 102 206 r itpm;
#X connect 0 0 2 1;
#X connect 1 0 2 2;
#X connect 2 0 3 0;
#X connect 4 0 2 0;
#X restore 366 622 pd itpclc;
#N canvas 1366 34 1249 1016 itpclc 0;
#X obj 158 202 inlet;
#X obj 228 202 inlet;
#X obj 121 270 expr ($f3 - $f2)*$f1 + $f2;
#X obj 121 295 outlet;
#X obj 102 206 r itpm;
#X connect 0 0 2 1;
#X connect 1 0 2 2;
#X connect 2 0 3 0;
#X connect 4 0 2 0;
#X restore 383 652 pd itpclc;
#N canvas 1366 34 1249 1016 itpclc 0;
#X obj 158 202 inlet;
#X obj 228 202 inlet;
#X obj 121 270 expr ($f3 - $f2)*$f1 + $f2;
#X obj 121 295 outlet;
#X obj 102 206 r itpm;
#X connect 0 0 2 1;
#X connect 1 0 2 2;
#X connect 2 0 3 0;
#X connect 4 0 2 0;
#X restore 399 682 pd itpclc;
#N canvas 1366 34 1249 1016 itpclc 0;
#X obj 158 202 inlet;
#X obj 228 202 inlet;
#X obj 121 270 expr ($f3 - $f2)*$f1 + $f2;
#X obj 121 295 outlet;
#X obj 102 206 r itpm;
#X connect 0 0 2 1;
#X connect 1 0 2 2;
#X connect 2 0 3 0;
#X connect 4 0 2 0;
#X restore 416 712 pd itpclc;
#N canvas 1366 34 1249 1016 itpclc 0;
#X obj 158 202 inlet;
#X obj 228 202 inlet;
#X obj 121 270 expr ($f3 - $f2)*$f1 + $f2;
#X obj 121 295 outlet;
#X obj 101 205 r itpm;
#X connect 0 0 2 1;
#X connect 1 0 2 2;
#X connect 2 0 3 0;
#X connect 4 0 2 0;
#X restore 1122 617 pd itpclc;
#X floatatom 1122 642 5 0 0 0 - - - 0;
#N canvas 1366 34 1249 1016 itpclc 0;
#X obj 158 202 inlet;
#X obj 228 202 inlet;
#X obj 121 270 expr ($f3 - $f2)*$f1 + $f2;
#X obj 121 295 outlet;
#X obj 102 206 r itpm;
#X connect 0 0 2 1;
#X connect 1 0 2 2;
#X connect 2 0 3 0;
#X connect 4 0 2 0;
#X restore 529 542 pd itpclc;
#N canvas 1366 34 1249 1016 itpclc 0;
#X obj 158 202 inlet;
#X obj 228 202 inlet;
#X obj 121 270 expr ($f3 - $f2)*$f1 + $f2;
#X obj 121 295 outlet;
#X obj 102 206 r itpm;
#X connect 0 0 2 1;
#X connect 1 0 2 2;
#X connect 2 0 3 0;
#X connect 4 0 2 0;
#X restore 549 572 pd itpclc;
#N canvas 1366 34 1249 1016 itpclc 0;
#X obj 158 202 inlet;
#X obj 228 202 inlet;
#X obj 121 270 expr ($f3 - $f2)*$f1 + $f2;
#X obj 121 295 outlet;
#X obj 102 206 r itpm;
#X connect 0 0 2 1;
#X connect 1 0 2 2;
#X connect 2 0 3 0;
#X connect 4 0 2 0;
#X restore 570 602 pd itpclc;
#N canvas 1366 34 1249 1016 itpclc 0;
#X obj 158 202 inlet;
#X obj 228 202 inlet;
#X obj 121 270 expr ($f3 - $f2)*$f1 + $f2;
#X obj 121 295 outlet;
#X obj 102 206 r itpm;
#X connect 0 0 2 1;
#X connect 1 0 2 2;
#X connect 2 0 3 0;
#X connect 4 0 2 0;
#X restore 590 632 pd itpclc;
#N canvas 1366 34 1249 1016 itpclc 0;
#X obj 158 202 inlet;
#X obj 228 202 inlet;
#X obj 121 270 expr ($f3 - $f2)*$f1 + $f2;
#X obj 121 295 outlet;
#X obj 102 206 r itpm;
#X connect 0 0 2 1;
#X connect 1 0 2 2;
#X connect 2 0 3 0;
#X connect 4 0 2 0;
#X restore 611 662 pd itpclc;
#N canvas 1366 34 1249 1016 itpclc 0;
#X obj 158 202 inlet;
#X obj 228 202 inlet;
#X obj 121 270 expr ($f3 - $f2)*$f1 + $f2;
#X obj 121 295 outlet;
#X obj 102 206 r itpm;
#X connect 0 0 2 1;
#X connect 1 0 2 2;
#X connect 2 0 3 0;
#X connect 4 0 2 0;
#X restore 631 692 pd itpclc;
#N canvas 1366 34 1249 1016 itpclc 0;
#X obj 158 202 inlet;
#X obj 228 202 inlet;
#X obj 121 270 expr ($f3 - $f2)*$f1 + $f2;
#X obj 121 295 outlet;
#X obj 102 206 r itpm;
#X connect 0 0 2 1;
#X connect 1 0 2 2;
#X connect 2 0 3 0;
#X connect 4 0 2 0;
#X restore 652 722 pd itpclc;
#X connect 0 0 4 0;
#X connect 2 0 6 0;
#X connect 3 0 5 0;
#X connect 4 0 32 0;
#X connect 4 1 33 0;
#X connect 4 2 34 0;
#X connect 5 0 35 0;
#X connect 5 1 36 0;
#X connect 5 2 37 0;
#X connect 5 3 38 0;
#X connect 5 4 39 0;
#X connect 5 5 40 0;
#X connect 5 6 41 0;
#X connect 5 7 42 0;
#X connect 5 8 43 0;
#X connect 5 9 44 0;
#X connect 5 10 45 0;
#X connect 5 11 46 0;
#X connect 5 12 47 0;
#X connect 5 13 48 0;
#X connect 5 14 49 0;
#X connect 6 0 52 0;
#X connect 6 1 53 0;
#X connect 6 2 54 0;
#X connect 6 3 55 0;
#X connect 6 4 56 0;
#X connect 6 5 57 0;
#X connect 6 6 58 0;
#X connect 7 0 10 0;
#X connect 8 0 12 0;
#X connect 9 0 11 0;
#X connect 10 0 32 1;
#X connect 10 1 33 1;
#X connect 10 2 34 1;
#X connect 11 0 35 1;
#X connect 11 1 36 1;
#X connect 11 2 37 1;
#X connect 11 3 38 1;
#X connect 11 4 39 1;
#X connect 11 5 40 1;
#X connect 11 6 41 1;
#X connect 11 7 42 1;
#X connect 11 8 43 1;
#X connect 11 9 44 1;
#X connect 11 10 45 1;
#X connect 11 11 46 1;
#X connect 11 12 47 1;
#X connect 11 13 48 1;
#X connect 11 14 49 1;
#X connect 12 0 52 1;
#X connect 12 1 53 1;
#X connect 12 2 54 1;
#X connect 12 3 55 1;
#X connect 12 4 56 1;
#X connect 12 5 57 1;
#X connect 12 6 58 1;
#X connect 14 0 16 0;
#X connect 14 0 29 0;
#X connect 14 0 30 0;
#X connect 17 0 20 0;
#X connect 18 0 21 0;
#X connect 19 0 22 0;
#X connect 23 0 28 0;
#X connect 23 0 50 0;
#X connect 24 0 28 1;
#X connect 24 0 50 1;
#X connect 26 0 27 0;
#X connect 26 0 28 2;
#X connect 27 0 28 0;
#X connect 27 0 24 0;
#X connect 27 0 23 0;
#X connect 28 0 25 0;
#X connect 29 0 27 0;
#X connect 30 0 31 0;
#X connect 32 0 17 0;
#X connect 33 0 17 1;
#X connect 34 0 17 2;
#X connect 35 0 18 0;
#X connect 36 0 18 1;
#X connect 37 0 18 2;
#X connect 38 0 18 3;
#X connect 39 0 18 4;
#X connect 40 0 18 5;
#X connect 41 0 18 6;
#X connect 42 0 18 7;
#X connect 43 0 18 8;
#X connect 44 0 18 9;
#X connect 45 0 18 10;
#X connect 46 0 18 11;
#X connect 47 0 18 12;
#X connect 48 0 18 13;
#X connect 49 0 18 14;
#X connect 50 0 51 0;
#X connect 52 0 19 0;
#X connect 53 0 19 1;
#X connect 54 0 19 2;
#X connect 55 0 19 3;
#X connect 56 0 19 4;
#X connect 57 0 19 5;
#X connect 58 0 19 6;
#X restore 109 537 pd preset_interpolation;
#X obj 648 364 vsl 20 170 0 1 0 0 empty empty empty 0 -9 0 12 #fcfcfc #000000 #000000 0 1;
#X obj 152 762 hsl 170 20 0 1 0 0 empty empty empty -2 -10 0 12 #fcfcfc #000000 #000000 0 1;
#N canvas 1366 34 1249 1016 FMBellOsc 0;
#X obj 247 578 osc~;
#X obj 96 659 *~;
#X obj 246 921 *~;
#X obj 351 809 vsl 20 170 0 1 0 0 empty empty empty 0 -9 0 12 #fcfcfc #000000 #000000 0 1;
#X obj 263 484 *~;
#X obj 246 550 +~;
#X obj 681 591 vline~;
#X obj 245 961 outlet~;
#X obj 699 169 vsl 20 170 0.1 1000 0 0 empty empty empty 0 -9 0 12 #fcfcfc #000000 #000000 0 1;
#X floatatom 681 492 5 0 0 0 - - - 0;
#X obj 780 169 vsl 20 170 0.1 10000 0 0 empty empty empty 0 -9 0 12 #fcfcfc #000000 #000000 0 1;
#X obj 780 472 f;
#X obj 681 461 f;
#X floatatom 780 497 5 0 0 0 - - - 0;
#X obj 681 516 pack;
#X msg 681 541 1 \$1 \, 0 \$2 \$1;
#X floatatom 719 342 5 0 0 0 - - - 0;
#X obj 623 292 bng 50 250 50 0 empty empty empty 0 -10 0 12 #fcfcfc #000000 #000000;
#X obj 247 659 *~;
#X obj 337 486 vsl 20 170 0 0.33 0 0 empty empty empty 0 -9 0 12 #fcfcfc #000000 #000000 0 1;
#X floatatom 337 660 5 0 0 0 - - - 0;
#X obj 97 578 osc~;
#X obj 113 484 *~;
#X obj 96 550 +~;
#X obj 97 612 *~;
#X obj 186 486 vsl 20 170 0 0.33 0 0 empty empty empty 0 -9 0 12 #fcfcfc #000000 #000000 0 1;
#X floatatom 186 660 5 0 0 0 - - - 0;
#X floatatom 73 464 5 0 0 0 - - - 0;
#X floatatom 223 464 5 0 0 0 - - - 0;
#X obj 397 578 osc~;
#X obj 413 484 *~;
#X obj 396 550 +~;
#X obj 397 659 *~;
#X obj 487 486 vsl 20 170 0 0.33 0 0 empty empty empty 0 -9 0 12 #fcfcfc #000000 #000000 0 1;
#X floatatom 487 660 5 0 0 0 - - - 0;
#X obj 114 296 *~;
#X obj 264 296 *~;
#X obj 414 296 *~;
#X floatatom 132 269 5 0 0 0 - - - 0;
#X floatatom 282 269 5 0 0 0 - - - 0;
#X floatatom 432 269 5 0 0 0 - - - 0;
#X obj 164 296 *~;
#X obj 314 296 *~;
#X obj 464 296 *~;
#X floatatom 182 269 5 0 0 0 - - - 0;
#X floatatom 332 269 5 0 0 0 - - - 0;
#X floatatom 482 269 5 0 0 0 - - - 0;
#X obj 214 296 *~;
#X obj 364 296 *~;
#X obj 514 296 *~;
#X floatatom 232 269 5 0 0 0 - - - 0;
#X floatatom 382 269 5 0 0 0 - - - 0;
#X floatatom 532 269 5 0 0 0 - - - 0;
#X obj 114 341 +~;
#X obj 264 341 +~;
#X obj 414 341 +~;
#X floatatom 131 430 5 0 0 0 - - - 0;
#X floatatom 281 430 5 0 0 0 - - - 0;
#X floatatom 431 430 5 0 0 0 - - - 0;
#X obj 223 513 *;
#X floatatom 373 465 5 0 0 0 - - - 0;
#X obj 373 513 *;
#X obj 73 33 inlet;
#X text 73 13 freq;
#X text 113 13 mult osc 2;
#X text 203 13 mult osc 3;
#X obj 623 33 inlet;
#X text 623 13 trigger;
#X obj 223 487 b;
#X obj 373 489 b;
#X obj 861 169 vsl 20 170 0.1 1000 0 0 empty empty empty 0 -9 0 12 #fcfcfc #000000 #000000 0 1;
#X floatatom 843 492 5 0 0 0 - - - 0;
#X obj 942 169 vsl 20 170 0.1 10000 0 0 empty empty empty 0 -9 0 12 #fcfcfc #000000 #000000 0 1;
#X obj 942 472 f;
#X obj 843 461 f;
#X floatatom 942 497 5 0 0 0 - - - 0;
#X obj 843 516 pack;
#X msg 843 541 1 \$1 \, 0 \$2 \$1;
#X floatatom 881 342 5 0 0 0 - - - 0;
#X obj 1023 169 vsl 20 170 0.1 1000 0 0 empty empty empty 0 -9 0 12 #fcfcfc #000000 #000000 0 1;
#X floatatom 1005 492 5 0 0 0 - - - 0;
#X obj 1104 169 vsl 20 170 0.1 10000 0 0 empty empty empty 0 -9 0 12 #fcfcfc #000000 #000000 0 1;
#X obj 1104 472 f;
#X obj 1005 461 f;
#X floatatom 1104 497 5 0 0 0 - - - 0;
#X obj 1005 516 pack;
#X msg 1005 541 1 \$1 \, 0 \$2 \$1;
#X floatatom 1043 342 5 0 0 0 - - - 0;
#X obj 843 591 vline~;
#X obj 1005 591 vline~;
#X floatatom 800 342 5 0 0 0 - - - 0;
#X floatatom 962 342 5 0 0 0 - - - 0;
#X floatatom 1124 342 5 0 0 0 - - - 0;
#X obj 780 418 *;
#X floatatom 1186 399 5 0 0 0 - - - 0;
#X floatatom 805 438 5 0 0 0 - - - 0;
#X obj 1145 398 b;
#X obj 942 418 *;
#X floatatom 967 438 5 0 0 0 - - - 0;
#X obj 1199 379 bng 20 250 50 0 empty empty empty 0 -10 0 12 #fcfcfc #000000 #000000;
#X obj 1104 418 *;
#X floatatom 1129 438 5 0 0 0 - - - 0;
#X obj 699 33 inlet;
#X obj 73 58 unpack f f f;
#X obj 303 33 inlet;
#X text 303 13 modulations;
#X obj 699 58 unpack f f f f f f f, f 70;
#X text 689 13 Attack Decay & Global Decay;
#X text 1184 416 global Decay;
#X obj 247 613 *~;
#X obj 397 613 *~;
#X obj 303 138 unpack f f f f f f f f f f f f f f f;
#X text 319 83 9 premier args : mod matrix \; FM amount osc 1 \, 2 \, 3 \; volume osc 1 \, 2 \, 3;
#X obj 351 774 inlet;
#X text 349 754 volume;
#X obj 113 88 s mo22;
#X obj 154 88 s mo32;
#X obj 73 488 s fo12;
#X obj 223 408 r fo12;
#X obj 223 438 r mo22;
#X obj 373 408 r fo12;
#X obj 373 438 r mo32;
#X obj 681 616 s~ eo12;
#X obj 843 616 s~ eo22;
#X obj 1005 616 s~ eo32;
#X obj 137 578 r~ eo12;
#X obj 287 578 r~ eo22;
#X obj 437 578 r~ eo32;
#X obj 136 659 s~ o12;
#X obj 287 659 s~ o22;
#X obj 437 659 s~ o32;
#X obj 114 141 r~ o12;
#X obj 164 141 r~ o22;
#X obj 214 141 r~ o32;
#X connect 0 0 109 0;
#X connect 1 0 2 0;
#X connect 2 0 7 0;
#X connect 3 0 2 1;
#X connect 4 0 5 1;
#X connect 5 0 0 0;
#X connect 6 0 122 0;
#X connect 8 0 16 0;
#X connect 8 0 12 1;
#X connect 9 0 14 0;
#X connect 10 0 90 0;
#X connect 10 0 93 0;
#X connect 11 0 13 0;
#X connect 12 0 9 0;
#X connect 13 0 14 1;
#X connect 14 0 15 0;
#X connect 15 0 6 0;
#X connect 17 0 12 0;
#X connect 17 0 74 0;
#X connect 17 0 83 0;
#X connect 18 0 2 0;
#X connect 19 0 18 1;
#X connect 19 0 20 0;
#X connect 21 0 24 0;
#X connect 22 0 23 1;
#X connect 23 0 21 0;
#X connect 24 0 1 0;
#X connect 24 0 128 0;
#X connect 25 0 26 0;
#X connect 25 0 1 1;
#X connect 27 0 23 0;
#X connect 27 0 117 0;
#X connect 28 0 59 1;
#X connect 28 0 68 0;
#X connect 29 0 110 0;
#X connect 30 0 31 1;
#X connect 31 0 29 0;
#X connect 32 0 2 0;
#X connect 33 0 32 1;
#X connect 33 0 34 0;
#X connect 35 0 53 0;
#X connect 36 0 54 0;
#X connect 37 0 55 0;
#X connect 38 0 35 1;
#X connect 39 0 36 1;
#X connect 40 0 37 1;
#X connect 41 0 53 1;
#X connect 42 0 54 1;
#X connect 43 0 55 1;
#X connect 44 0 41 1;
#X connect 45 0 42 1;
#X connect 46 0 43 1;
#X connect 47 0 53 1;
#X connect 48 0 54 1;
#X connect 49 0 55 1;
#X connect 50 0 47 1;
#X connect 51 0 48 1;
#X connect 52 0 49 1;
#X connect 53 0 22 0;
#X connect 54 0 4 0;
#X connect 55 0 30 0;
#X connect 56 0 22 1;
#X connect 57 0 4 1;
#X connect 58 0 30 1;
#X connect 59 0 5 0;
#X connect 60 0 61 1;
#X connect 60 0 69 0;
#X connect 61 0 31 0;
#X connect 62 0 103 0;
#X connect 66 0 17 0;
#X connect 68 0 59 0;
#X connect 69 0 61 0;
#X connect 70 0 74 1;
#X connect 70 0 78 0;
#X connect 71 0 76 0;
#X connect 72 0 91 0;
#X connect 72 0 97 0;
#X connect 73 0 75 0;
#X connect 74 0 71 0;
#X connect 75 0 76 1;
#X connect 76 0 77 0;
#X connect 77 0 88 0;
#X connect 79 0 83 1;
#X connect 79 0 87 0;
#X connect 80 0 85 0;
#X connect 81 0 92 0;
#X connect 81 0 100 0;
#X connect 82 0 84 0;
#X connect 83 0 80 0;
#X connect 84 0 85 1;
#X connect 85 0 86 0;
#X connect 86 0 89 0;
#X connect 88 0 123 0;
#X connect 89 0 124 0;
#X connect 93 0 95 0;
#X connect 93 0 11 0;
#X connect 94 0 93 1;
#X connect 94 0 96 0;
#X connect 94 0 97 1;
#X connect 94 0 100 1;
#X connect 96 0 93 0;
#X connect 96 0 97 0;
#X connect 96 0 100 0;
#X connect 97 0 73 0;
#X connect 97 0 98 0;
#X connect 99 0 94 0;
#X connect 100 0 101 0;
#X connect 100 0 82 0;
#X connect 102 0 106 0;
#X connect 103 0 27 0;
#X connect 103 1 115 0;
#X connect 103 2 116 0;
#X connect 104 0 111 0;
#X connect 106 0 8 0;
#X connect 106 1 10 0;
#X connect 106 2 70 0;
#X connect 106 3 72 0;
#X connect 106 4 79 0;
#X connect 106 5 81 0;
#X connect 106 6 94 0;
#X connect 109 0 18 0;
#X connect 109 0 129 0;
#X connect 110 0 32 0;
#X connect 110 0 130 0;
#X connect 111 0 38 0;
#X connect 111 1 44 0;
#X connect 111 2 50 0;
#X connect 111 3 39 0;
#X connect 111 4 45 0;
#X connect 111 5 51 0;
#X connect 111 6 40 0;
#X connect 111 7 46 0;
#X connect 111 8 52 0;
#X connect 111 9 56 0;
#X connect 111 10 57 0;
#X connect 111 11 58 0;
#X connect 111 12 25 0;
#X connect 111 13 19 0;
#X connect 111 14 33 0;
#X connect 113 0 3 0;
#X connect 118 0 59 0;
#X connect 119 0 28 0;
#X connect 120 0 61 0;
#X connect 121 0 60 0;
#X connect 125 0 24 1;
#X connect 126 0 109 1;
#X connect 127 0 110 1;
#X connect 131 0 35 0;
#X connect 131 0 36 0;
#X connect 131 0 37 0;
#X connect 132 0 41 0;
#X connect 132 0 42 0;
#X connect 132 0 43 0;
#X connect 133 0 47 0;
#X connect 133 0 48 0;
#X connect 133 0 49 0;
#X restore 399 742 pd FMBellOsc;
#X obj 358 702 bng 40 250 50 0 empty empty empty 0 -10 0 12 #fcfcfc #000000 #000000;
#X obj 442 762 hsl 170 20 0 1 0 0 empty empty empty -2 -10 0 12 #fcfcfc #000000 #000000 0 1;
#N canvas 1366 34 1249 1016 preset_interpolation 0;
#X obj 12 69 inlet;
#X text 37 41 Preset 1;
#X obj 361 69 inlet;
#X obj 102 69 inlet;
#X obj 12 94 unpack f f f;
#X obj 102 94 unpack f f f f f f f f f f f f f f f;
#X obj 361 94 unpack f f f f f f f;
#X obj 512 69 inlet;
#X obj 861 69 inlet;
#X obj 603 68 inlet;
#X obj 512 94 unpack f f f;
#X obj 603 93 unpack f f f f f f f f f f f f f f f;
#X obj 861 94 unpack f f f f f f f;
#X text 537 41 Preset 2;
#X obj 1311 87 inlet;
#X text 1314 55 morph;
#X obj 1318 155 s itpm;
#X obj 12 834 pack f f f;
#X obj 182 834 pack f f f f f f f f f f f f f f f;
#X obj 529 830 pack f f f f f f f;
#X obj 12 859 outlet;
#X obj 182 859 outlet;
#X obj 529 855 outlet;
#X floatatom 1026 512 5 0 0 0 - - - 0;
#X floatatom 1109 516 5 0 0 0 - - - 0;
#X floatatom 1032 589 5 0 0 0 - - - 0;
#X obj 1181 314 vsl 20 170 0 1 0 0 empty empty empty 0 -9 0 12 #fcfcfc #000000 #000000 0 1;
#X obj 1181 492 b;
#X obj 1032 564 expr ($f2-$f1)*$f3+$f1;
#X obj 1306 225 vsl 20 170 0 1 0 0 empty empty empty 0 -9 0 12 #fcfcfc #000000 #000000 0 1;
#X obj 1311 112 b;
#X obj 1311 137 bng 20 250 50 0 empty empty empty 0 -10 0 12 #fcfcfc #000000 #000000;
#N canvas 1366 34 1249 1016 itpclc 0;
#X obj 158 202 inlet;
#X obj 228 202 inlet;
#X obj 121 270 expr ($f3 - $f2)*$f1 + $f2;
#X obj 121 295 outlet;
#X obj 102 206 r itpm;
#X connect 0 0 2 1;
#X connect 1 0 2 2;
#X connect 2 0 3 0;
#X connect 4 0 2 0;
#X restore 12 182 pd itpclc;
#N canvas 1366 34 1249 1016 itpclc 0;
#X obj 158 202 inlet;
#X obj 228 202 inlet;
#X obj 121 270 expr ($f3 - $f2)*$f1 + $f2;
#X obj 121 295 outlet;
#X obj 102 206 r itpm;
#X connect 0 0 2 1;
#X connect 1 0 2 2;
#X connect 2 0 3 0;
#X connect 4 0 2 0;
#X restore 45 212 pd itpclc;
#N canvas 1366 34 1249 1016 itpclc 0;
#X obj 158 202 inlet;
#X obj 228 202 inlet;
#X obj 121 270 expr ($f3 - $f2)*$f1 + $f2;
#X obj 121 295 outlet;
#X obj 102 206 r itpm;
#X connect 0 0 2 1;
#X connect 1 0 2 2;
#X connect 2 0 3 0;
#X connect 4 0 2 0;
#X restore 79 242 pd itpclc;
#N canvas 1366 34 1249 1016 itpclc 0;
#X obj 158 202 inlet;
#X obj 228 202 inlet;
#X obj 121 270 expr ($f3 - $f2)*$f1 + $f2;
#X obj 121 295 outlet;
#X obj 102 206 r itpm;
#X connect 0 0 2 1;
#X connect 1 0 2 2;
#X connect 2 0 3 0;
#X connect 4 0 2 0;
#X restore 182 292 pd itpclc;
#N canvas 1366 34 1249 1016 itpclc 0;
#X obj 158 202 inlet;
#X obj 228 202 inlet;
#X obj 121 270 expr ($f3 - $f2)*$f1 + $f2;
#X obj 121 295 outlet;
#X obj 102 206 r itpm;
#X connect 0 0 2 1;
#X connect 1 0 2 2;
#X connect 2 0 3 0;
#X connect 4 0 2 0;
#X restore 198 322 pd itpclc;
#N canvas 1366 34 1249 1016 itpclc 0;
#X obj 158 202 inlet;
#X obj 228 202 inlet;
#X obj 121 270 expr ($f3 - $f2)*$f1 + $f2;
#X obj 121 295 outlet;
#X obj 102 206 r itpm;
#X connect 0 0 2 1;
#X connect 1 0 2 2;
#X connect 2 0 3 0;
#X connect 4 0 2 0;
#X restore 215 352 pd itpclc;
#N canvas 1366 34 1249 1016 itpclc 0;
#X obj 158 202 inlet;
#X obj 228 202 inlet;
#X obj 121 270 expr ($f3 - $f2)*$f1 + $f2;
#X obj 121 295 outlet;
#X obj 102 206 r itpm;
#X connect 0 0 2 1;
#X connect 1 0 2 2;
#X connect 2 0 3 0;
#X connect 4 0 2 0;
#X restore 232 382 pd itpclc;
#N canvas 1366 34 1249 1016 itpclc 0;
#X obj 158 202 inlet;
#X obj 228 202 inlet;
#X obj 121 270 expr ($f3 - $f2)*$f1 + $f2;
#X obj 121 295 outlet;
#X obj 102 206 r itpm;
#X connect 0 0 2 1;
#X connect 1 0 2 2;
#X connect 2 0 3 0;
#X connect 4 0 2 0;
#X restore 249 412 pd itpclc;
#N canvas 1366 34 1249 1016 itpclc 0;
#X obj 158 202 inlet;
#X obj 228 202 inlet;
#X obj 121 270 expr ($f3 - $f2)*$f1 + $f2;
#X obj 121 295 outlet;
#X obj 102 206 r itpm;
#X connect 0 0 2 1;
#X connect 1 0 2 2;
#X connect 2 0 3 0;
#X connect 4 0 2 0;
#X restore 265 442 pd itpclc;
#N canvas 1366 34 1249 1016 itpclc 0;
#X obj 158 202 inlet;
#X obj 228 202 inlet;
#X obj 121 270 expr ($f3 - $f2)*$f1 + $f2;
#X obj 121 295 outlet;
#X obj 102 206 r itpm;
#X connect 0 0 2 1;
#X connect 1 0 2 2;
#X connect 2 0 3 0;
#X connect 4 0 2 0;
#X restore 282 472 pd itpclc;
#N canvas 1366 34 1249 1016 itpclc 0;
#X obj 158 202 inlet;
#X obj 228 202 inlet;
#X obj 121 270 expr ($f3 - $f2)*$f1 + $f2;
#X obj 121 295 outlet;
#X obj 102 206 r itpm;
#X connect 0 0 2 1;
#X connect 1 0 2 2;
#X connect 2 0 3 0;
#X connect 4 0 2 0;
#X restore 299 502 pd itpclc;
#N canvas 1366 34 1249 1016 itpclc 0;
#X obj 158 202 inlet;
#X obj 228 202 inlet;
#X obj 121 270 expr ($f3 - $f2)*$f1 + $f2;
#X obj 121 295 outlet;
#X obj 102 206 r itpm;
#X connect 0 0 2 1;
#X connect 1 0 2 2;
#X connect 2 0 3 0;
#X connect 4 0 2 0;
#X restore 316 532 pd itpclc;
#N canvas 1366 34 1249 1016 itpclc 0;
#X obj 158 202 inlet;
#X obj 228 202 inlet;
#X obj 121 270 expr ($f3 - $f2)*$f1 + $f2;
#X obj 121 295 outlet;
#X obj 102 206 r itpm;
#X connect 0 0 2 1;
#X connect 1 0 2 2;
#X connect 2 0 3 0;
#X connect 4 0 2 0;
#X restore 332 562 pd itpclc;
#N canvas 1366 34 1249 1016 itpclc 0;
#X obj 158 202 inlet;
#X obj 228 202 inlet;
#X obj 121 270 expr ($f3 - $f2)*$f1 + $f2;
#X obj 121 295 outlet;
#X obj 102 206 r itpm;
#X connect 0 0 2 1;
#X connect 1 0 2 2;
#X connect 2 0 3 0;
#X connect 4 0 2 0;
#X restore 349 592 pd itpclc;
#N canvas 1366 34 1249 1016 itpclc 0;
#X obj 158 202 inlet;
#X obj 228 202 inlet;
#X obj 121 270 expr ($f3 - $f2)*$f1 + $f2;
#X obj 121 295 outlet;
#X obj 102 206 r itpm;
#X connect 0 0 2 1;
#X connect 1 0 2 2;
#X connect 2 0 3 0;
#X connect 4 0 2 0;
#X restore 366 622 pd itpclc;
#N canvas 1366 34 1249 1016 itpclc 0;
#X obj 158 202 inlet;
#X obj 228 202 inlet;
#X obj 121 270 expr ($f3 - $f2)*$f1 + $f2;
#X obj 121 295 outlet;
#X obj 102 206 r itpm;
#X connect 0 0 2 1;
#X connect 1 0 2 2;
#X connect 2 0 3 0;
#X connect 4 0 2 0;
#X restore 383 652 pd itpclc;
#N canvas 1366 34 1249 1016 itpclc 0;
#X obj 158 202 inlet;
#X obj 228 202 inlet;
#X obj 121 270 expr ($f3 - $f2)*$f1 + $f2;
#X obj 121 295 outlet;
#X obj 102 206 r itpm;
#X connect 0 0 2 1;
#X connect 1 0 2 2;
#X connect 2 0 3 0;
#X connect 4 0 2 0;
#X restore 399 682 pd itpclc;
#N canvas 1366 34 1249 1016 itpclc 0;
#X obj 158 202 inlet;
#X obj 228 202 inlet;
#X obj 121 270 expr ($f3 - $f2)*$f1 + $f2;
#X obj 121 295 outlet;
#X obj 102 206 r itpm;
#X connect 0 0 2 1;
#X connect 1 0 2 2;
#X connect 2 0 3 0;
#X connect 4 0 2 0;
#X restore 416 712 pd itpclc;
#N canvas 1366 34 1249 1016 itpclc 0;
#X obj 158 202 inlet;
#X obj 228 202 inlet;
#X obj 121 270 expr ($f3 - $f2)*$f1 + $f2;
#X obj 121 295 outlet;
#X obj 101 205 r itpm;
#X connect 0 0 2 1;
#X connect 1 0 2 2;
#X connect 2 0 3 0;
#X connect 4 0 2 0;
#X restore 1122 617 pd itpclc;
#X floatatom 1122 642 5 0 0 0 - - - 0;
#N canvas 1366 34 1249 1016 itpclc 0;
#X obj 158 202 inlet;
#X obj 228 202 inlet;
#X obj 121 270 expr ($f3 - $f2)*$f1 + $f2;
#X obj 121 295 outlet;
#X obj 102 206 r itpm;
#X connect 0 0 2 1;
#X connect 1 0 2 2;
#X connect 2 0 3 0;
#X connect 4 0 2 0;
#X restore 529 542 pd itpclc;
#N canvas 1366 34 1249 1016 itpclc 0;
#X obj 158 202 inlet;
#X obj 228 202 inlet;
#X obj 121 270 expr ($f3 - $f2)*$f1 + $f2;
#X obj 121 295 outlet;
#X obj 102 206 r itpm;
#X connect 0 0 2 1;
#X connect 1 0 2 2;
#X connect 2 0 3 0;
#X connect 4 0 2 0;
#X restore 549 572 pd itpclc;
#N canvas 1366 34 1249 1016 itpclc 0;
#X obj 158 202 inlet;
#X obj 228 202 inlet;
#X obj 121 270 expr ($f3 - $f2)*$f1 + $f2;
#X obj 121 295 outlet;
#X obj 102 206 r itpm;
#X connect 0 0 2 1;
#X connect 1 0 2 2;
#X connect 2 0 3 0;
#X connect 4 0 2 0;
#X restore 570 602 pd itpclc;
#N canvas 1366 34 1249 1016 itpclc 0;
#X obj 158 202 inlet;
#X obj 228 202 inlet;
#X obj 121 270 expr ($f3 - $f2)*$f1 + $f2;
#X obj 121 295 outlet;
#X obj 102 206 r itpm;
#X connect 0 0 2 1;
#X connect 1 0 2 2;
#X connect 2 0 3 0;
#X connect 4 0 2 0;
#X restore 590 632 pd itpclc;
#N canvas 1366 34 1249 1016 itpclc 0;
#X obj 158 202 inlet;
#X obj 228 202 inlet;
#X obj 121 270 expr ($f3 - $f2)*$f1 + $f2;
#X obj 121 295 outlet;
#X obj 102 206 r itpm;
#X connect 0 0 2 1;
#X connect 1 0 2 2;
#X connect 2 0 3 0;
#X connect 4 0 2 0;
#X restore 611 662 pd itpclc;
#N canvas 1366 34 1249 1016 itpclc 0;
#X obj 158 202 inlet;
#X obj 228 202 inlet;
#X obj 121 270 expr ($f3 - $f2)*$f1 + $f2;
#X obj 121 295 outlet;
#X obj 102 206 r itpm;
#X connect 0 0 2 1;
#X connect 1 0 2 2;
#X connect 2 0 3 0;
#X connect 4 0 2 0;
#X restore 631 692 pd itpclc;
#N canvas 1366 34 1249 1016 itpclc 0;
#X obj 158 202 inlet;
#X obj 228 202 inlet;
#X obj 121 270 expr ($f3 - $f2)*$f1 + $f2;
#X obj 121 295 outlet;
#X obj 102 206 r itpm;
#X connect 0 0 2 1;
#X connect 1 0 2 2;
#X connect 2 0 3 0;
#X connect 4 0 2 0;
#X restore 652 722 pd itpclc;
#X connect 0 0 4 0;
#X connect 2 0 6 0;
#X connect 3 0 5 0;
#X connect 4 0 32 0;
#X connect 4 1 33 0;
#X connect 4 2 34 0;
#X connect 5 0 35 0;
#X connect 5 1 36 0;
#X connect 5 2 37 0;
#X connect 5 3 38 0;
#X connect 5 4 39 0;
#X connect 5 5 40 0;
#X connect 5 6 41 0;
#X connect 5 7 42 0;
#X connect 5 8 43 0;
#X connect 5 9 44 0;
#X connect 5 10 45 0;
#X connect 5 11 46 0;
#X connect 5 12 47 0;
#X connect 5 13 48 0;
#X connect 5 14 49 0;
#X connect 6 0 52 0;
#X connect 6 1 53 0;
#X connect 6 2 54 0;
#X connect 6 3 55 0;
#X connect 6 4 56 0;
#X connect 6 5 57 0;
#X connect 6 6 58 0;
#X connect 7 0 10 0;
#X connect 8 0 12 0;
#X connect 9 0 11 0;
#X connect 10 0 32 1;
#X connect 10 1 33 1;
#X connect 10 2 34 1;
#X connect 11 0 35 1;
#X connect 11 1 36 1;
#X connect 11 2 37 1;
#X connect 11 3 38 1;
#X connect 11 4 39 1;
#X connect 11 5 40 1;
#X connect 11 6 41 1;
#X connect 11 7 42 1;
#X connect 11 8 43 1;
#X connect 11 9 44 1;
#X connect 11 10 45 1;
#X connect 11 11 46 1;
#X connect 11 12 47 1;
#X connect 11 13 48 1;
#X connect 11 14 49 1;
#X connect 12 0 52 1;
#X connect 12 1 53 1;
#X connect 12 2 54 1;
#X connect 12 3 55 1;
#X connect 12 4 56 1;
#X connect 12 5 57 1;
#X connect 12 6 58 1;
#X connect 14 0 16 0;
#X connect 14 0 29 0;
#X connect 14 0 30 0;
#X connect 17 0 20 0;
#X connect 18 0 21 0;
#X connect 19 0 22 0;
#X connect 23 0 28 0;
#X connect 23 0 50 0;
#X connect 24 0 28 1;
#X connect 24 0 50 1;
#X connect 26 0 27 0;
#X connect 26 0 28 2;
#X connect 27 0 28 0;
#X connect 27 0 24 0;
#X connect 27 0 23 0;
#X connect 28 0 25 0;
#X connect 29 0 27 0;
#X connect 30 0 31 0;
#X connect 32 0 17 0;
#X connect 33 0 17 1;
#X connect 34 0 17 2;
#X connect 35 0 18 0;
#X connect 36 0 18 1;
#X connect 37 0 18 2;
#X connect 38 0 18 3;
#X connect 39 0 18 4;
#X connect 40 0 18 5;
#X connect 41 0 18 6;
#X connect 42 0 18 7;
#X connect 43 0 18 8;
#X connect 44 0 18 9;
#X connect 45 0 18 10;
#X connect 46 0 18 11;
#X connect 47 0 18 12;
#X connect 48 0 18 13;
#X connect 49 0 18 14;
#X connect 50 0 51 0;
#X connect 52 0 19 0;
#X connect 53 0 19 1;
#X connect 54 0 19 2;
#X connect 55 0 19 3;
#X connect 56 0 19 4;
#X connect 57 0 19 5;
#X connect 58 0 19 6;
#X restore 399 537 pd preset_interpolation;
#X obj 69 83 tgl 40 0 empty empty empty 0 -10 0 12 #fcfcfc #000000 #000000 0 1;
#X obj 69 139 metro 2000;
#X obj 112 950 outlet~;
#X obj 69 47 inlet;
#X text 69 27 isOn;
#X obj 648 329 inlet;
#X text 646 303 morph;
#X obj 249 47 inlet;
#X text 249 26 volume;
#X obj 249 72 s vjazr;
#X obj 207 742 r vjazr;
#X obj 497 742 r vjazr;
#X obj 648 3 loadbang;
#X obj 648 164 loadbang;
#X obj 175 133 inlet;
#X obj 175 157 delay 200;
#X obj 357 159 delay 450;
#X connect 0 0 12 0;
#X connect 1 0 0 3;
#X connect 2 0 10 0;
#X connect 2 0 11 0;
#X connect 2 0 4 0;
#X connect 4 0 13 2;
#X connect 4 0 19 5;
#X connect 5 0 7 0;
#X connect 5 0 9 0;
#X connect 5 0 8 0;
#X connect 7 0 13 3;
#X connect 7 0 19 0;
#X connect 8 0 13 5;
#X connect 8 0 19 2;
#X connect 9 0 13 4;
#X connect 9 0 19 1;
#X connect 10 0 13 0;
#X connect 10 0 19 3;
#X connect 11 0 13 1;
#X connect 11 0 19 4;
#X connect 12 0 22 0;
#X connect 13 0 0 0;
#X connect 13 1 0 1;
#X connect 13 2 0 4;
#X connect 14 0 13 6;
#X connect 14 0 19 6;
#X connect 15 0 0 2;
#X connect 16 0 12 0;
#X connect 17 0 16 3;
#X connect 18 0 16 2;
#X connect 19 0 16 0;
#X connect 19 1 16 1;
#X connect 19 2 16 4;
#X connect 20 0 21 0;
#X connect 23 0 20 0;
#X connect 25 0 14 0;
#X connect 27 0 29 0;
#X connect 30 0 15 0;
#X connect 31 0 18 0;
#X connect 32 0 2 0;
#X connect 33 0 5 0;
#X connect 34 0 35 0;
#X connect 34 0 36 0;
#X connect 35 0 1 0;
#X connect 36 0 17 0;
