#N canvas 0 34 957 704 12;
#X obj 142 724 phasor~;
#X obj 39 587 hsl 170 20 20 10000 0 0 empty empty empty -2 -10 0 12 #fcfcfc #000000 #000000 0 1;
#X obj 142 803 *~;
#X obj 248 873 vcf~;
#X obj 363 947 dac~ 1 2;
#X obj 421 780 hsl 170 20 100 5000 0 0 empty empty empty -2 -10 0 12 #fcfcfc #000000 #000000 0 1;
#X obj 422 853 hsl 170 20 1 20 0 0 empty empty empty -2 -10 0 12 #fcfcfc #000000 #000000 0 1;
#X obj 146 909 *~;
#X obj 249 909 *~;
#X obj 33 736 vsl 20 170 0 1 0 0 empty empty empty 0 -9 0 12 #fcfcfc #000000 #000000 0 1;
#X obj 143 873 vcf~;
#X obj 247 725 phasor~;
#X obj 250 588 hsl 170 20 20 10000 0 0 empty empty empty -2 -10 0 12 #fcfcfc #000000 #000000 0 1;
#X obj 247 801 *~;
#X obj 35 88 hsl 170 20 0.02 5 0 0 empty empty empty -2 -10 0 12 #fcfcfc #000000 #000000 0 1;
#X obj 273 68 vsl 20 170 0 1 0 0 empty empty empty 0 -9 0 12 #fcfcfc #000000 #000000 0 1;
#X obj 221 204 b;
#X obj 418 804 sig~;
#X floatatom 458 804 5 0 0 0 - - - 0;
#X floatatom 140 607 5 0 0 0 - - - 0;
#X obj 33 695 inlet;
#X obj 32 31 inlet;
#X text 521 9 Noise;
#X obj 521 29 inlet;
#X obj 146 966 outlet~;
#X obj 248 965 outlet~;
#X obj 273 35 inlet;
#X obj 81 58 * 10000;
#X obj 32 56 * 16;
#X obj 521 54 vsl 20 170 0 1 0 0 empty empty empty 0 -9 0 12 #fcfcfc #000000 #000000 0 1;
#N canvas 1366 34 960 1016 bellsadd 0;
#X obj 25 252 osc~;
#X floatatom 25 162 5 0 0 0 - - - 0;
#X obj 106 252 osc~;
#X floatatom 106 162 5 0 0 0 - - - 0;
#X obj 188 252 osc~;
#X floatatom 188 162 5 0 0 0 - - - 0;
#X obj 276 251 osc~;
#X floatatom 276 162 5 0 0 0 - - - 0;
#X obj 366 250 osc~;
#X floatatom 366 162 5 0 0 0 - - - 0;
#X obj 457 252 osc~;
#X floatatom 457 162 5 0 0 0 - - - 0;
#X obj 539 253 osc~;
#X floatatom 539 162 5 0 0 0 - - - 0;
#X obj 630 252 osc~;
#X floatatom 630 162 5 0 0 0 - - - 0;
#X obj 539 120 1000;
#X obj 25 57 bng 20 250 50 0 empty empty empty 0 -10 0 12 #fcfcfc #000000 #000000;
#X obj 25 120 301;
#X obj 106 120 300.5;
#X obj 188 120 330;
#X obj 276 120 555, f 6;
#X obj 366 120 556;
#X obj 457 120 990;
#X obj 630 119 1001, f 6;
#X obj 24 342 +~, f 4;
#X obj 24 421 outlet~;
#X obj 25 12 loadbang;
#X obj 582 29 inlet~;
#X text 579 3 FM;
#X obj 25 207 +~;
#X obj 106 207 +~;
#X obj 188 206 +~;
#X obj 276 206 +~;
#X obj 366 206 +~;
#X obj 457 206 +~;
#X obj 539 206 +~;
#X obj 630 206 +~;
#X obj 582 54 s~ fm;
#X obj 43 184 r~ fm;
#X obj 124 184 r~ fm;
#X obj 206 183 r~ fm;
#X obj 294 183 r~ fm;
#X obj 383 184 r~ fm;
#X obj 475 183 r~ fm;
#X obj 557 183 r~ fm;
#X obj 648 184 r~ fm;
#X obj 24 367 *~ 1;
#X connect 0 0 25 0;
#X connect 1 0 30 0;
#X connect 2 0 25 1;
#X connect 3 0 31 0;
#X connect 4 0 25 1;
#X connect 5 0 32 0;
#X connect 6 0 25 1;
#X connect 7 0 33 0;
#X connect 8 0 25 1;
#X connect 9 0 34 0;
#X connect 10 0 25 1;
#X connect 11 0 35 0;
#X connect 12 0 25 1;
#X connect 13 0 36 0;
#X connect 14 0 25 1;
#X connect 15 0 37 0;
#X connect 16 0 13 0;
#X connect 17 0 16 0;
#X connect 17 0 18 0;
#X connect 17 0 19 0;
#X connect 17 0 20 0;
#X connect 17 0 21 0;
#X connect 17 0 22 0;
#X connect 17 0 23 0;
#X connect 17 0 24 0;
#X connect 18 0 1 0;
#X connect 19 0 3 0;
#X connect 20 0 5 0;
#X connect 21 0 7 0;
#X connect 22 0 9 0;
#X connect 23 0 11 0;
#X connect 24 0 15 0;
#X connect 25 0 47 0;
#X connect 27 0 17 0;
#X connect 28 0 38 0;
#X connect 30 0 0 0;
#X connect 31 0 2 0;
#X connect 32 0 4 0;
#X connect 33 0 6 0;
#X connect 34 0 8 0;
#X connect 35 0 10 0;
#X connect 36 0 12 0;
#X connect 37 0 14 0;
#X connect 39 0 30 1;
#X connect 40 0 31 1;
#X connect 41 0 32 1;
#X connect 42 0 33 1;
#X connect 43 0 34 1;
#X connect 44 0 35 1;
#X connect 45 0 36 1;
#X connect 46 0 37 1;
#X connect 47 0 26 0;
#X restore 490 472 pd bellsadd;
#X obj 247 673 +~;
#X obj 142 673 +~;
#X obj 490 573 *~;
#X floatatom 521 548 5 0 0 0 - - - 0;
#X obj 159 309 *~;
#X obj 235 310 *~;
#X floatatom 360 247 5 0 0 0 - - - 0;
#X obj 325 227 expr 1 - $f1;
#X obj 159 339 +~;
#X obj 235 341 +~;
#X obj 160 283 phaseSignal;
#X floatatom 419 878 5 0 0 0 - - - 0;
#X obj 527 800 loadbang;
#X floatatom 297 608 5 0 0 0 - - - 0;
#N canvas 1366 34 960 1016 NoiseMod 0;
#X obj 51 15 inlet;
#X text 50 -14 freq;
#X obj 324 15 inlet;
#X text 323 -13 Noise;
#X obj 583 15 inlet;
#X text 580 -15 FM source;
#X obj 428 15 inlet;
#X text 424 -14 Noise Threshold;
#X floatatom 428 40 5 0 0 0 - - - 0;
#X obj 410 80 >;
#X obj 227 15 inlet;
#X text 226 -14 f Noise;
#X obj 131 214 expr ($f2 - $f1) * $f3 + $f1;
#X floatatom 227 40 5 0 0 0 - - - 0;
#X obj 51 282 expr $f1 * (1 - $f3) + $f2 * $f3;
#X floatatom 161 251 5 0 0 0 - - - 0;
#X floatatom 51 307 5 0 0 0 - - - 0;
#X obj 51 381 outlet;
#X text 91 414 osc freq out;
#X obj 84 100 b;
#X floatatom 410 227 5 0 0 0 - - - 0;
#X obj 191 351 * 1.5;
#X obj 191 381 outlet;
#X obj 337 59 s noise;
#X obj 497 324 r noise;
#X obj 417 349 b;
#X floatatom 517 349 5 0 0 0 - - - 0;
#X floatatom 311 411 5 0 0 0 - - - 0;
#X obj 311 435 outlet;
#X text 311 468 vcf cutoff out;
#X floatatom 51 40 5 0 0 0 - - - 0;
#X floatatom 353 192 5 0 0 0 - - - 0;
#X obj 324 110 expr $f2 * ($f1 - $f3) / (1 - $f3);
#X obj 671 378 outlet;
#X text 674 405 NoiseMod;
#X obj 311 386 expr $f1 * 1.1 - $f1/3 * $f2;
#X connect 0 0 12 0;
#X connect 0 0 14 0;
#X connect 0 0 30 0;
#X connect 2 0 9 0;
#X connect 2 0 19 0;
#X connect 2 0 23 0;
#X connect 2 0 32 0;
#X connect 6 0 8 0;
#X connect 8 0 9 1;
#X connect 8 0 32 2;
#X connect 9 0 20 0;
#X connect 9 0 32 1;
#X connect 10 0 13 0;
#X connect 12 0 15 0;
#X connect 13 0 12 1;
#X connect 14 0 16 0;
#X connect 15 0 14 1;
#X connect 16 0 17 0;
#X connect 16 0 21 0;
#X connect 19 0 12 0;
#X connect 19 0 14 0;
#X connect 20 0 14 2;
#X connect 21 0 22 0;
#X connect 21 0 35 0;
#X connect 24 0 25 0;
#X connect 24 0 26 0;
#X connect 24 0 35 1;
#X connect 25 0 35 0;
#X connect 27 0 28 0;
#X connect 32 0 12 2;
#X connect 32 0 31 0;
#X connect 32 0 33 0;
#X connect 35 0 27 0;
#X restore 81 518 pd NoiseMod;
#X f 26;
#X obj 160 249 swap, f 11;
#X obj 125 479 1300;
#X obj 125 429 loadbang;
#X obj 125 454 bng 20 250 50 0 empty empty empty 0 -10 0 12 #fcfcfc #000000 #000000;
#X obj 215 479 0.65;
#X obj 159 364 s~ phaseL;
#X obj 159 769 r~ phaseL;
#X obj 235 366 s~ phaseR;
#X obj 265 769 r~ phaseR;
#X obj 419 828 3.3, f 4;
#X floatatom 653 307 5 0 0 0 - - - 0;
#X obj 846 282 1000;
#X floatatom 846 307 5 0 0 0 - - - 0;
#X obj 653 282 250;
#X floatatom 653 356 5 0 0 0 - - - 0;
#X obj 745 240 bng 20 250 50 0 empty empty empty 0 -10 0 12 #fcfcfc #000000 #000000;
#X obj 653 332 expr (ln($f2) - ln($f1))/0.5;
#X text 632 358 B;
#X obj 653 390 expr $f2 / (exp($f1) - 1);
#X floatatom 653 415 5 0 0 0 - - - 0;
#X text 631 416 A;
#X text 570 536 n(x) = A * (exp(B*x) - 1);
#X obj 521 515 expr $f3 * (exp($f1 * $f2) -1);
#X obj 745 205 loadbang;
#X text 575 257 value of n(0.5);
#X text 832 258 value of n(1);
#X text 639 169 ~~~~~ Noise Modulation Curve ~~~~~;
#X text 31 672 Volume;
#X text 32 11 Freq;
#X text 273 15 Phase;
#X text 415 749 ~~~~~ Filter Control ~~~~~;
#X text 65 398 ~~~~~ Threshold & Raw Noise Frequency ~~~~~;
#X text 598 781 Cutoff;
#X text 599 853 Resonance;
#X obj 711 29 inlet;
#X text 711 9 is On;
#X obj 711 54 s lgmrPOn;
#X obj 292 914 r lgmrPOn;
#X obj 775 225 tgl 20 0 empty empty empty 0 -10 0 12 #fcfcfc #000000 #000000 0 1;
#X obj 165 449 tgl 20 0 empty empty empty 0 -10 0 12 #fcfcfc #000000 #000000 0 1;
#X obj 146 934 *~;
#X obj 249 934 *~;
#X obj 81 564 outlet;
#X text 91 542 freq out;
#X connect 0 0 2 0;
#X connect 1 0 19 0;
#X connect 1 0 32 0;
#X connect 2 0 10 0;
#X connect 3 1 8 0;
#X connect 5 0 17 0;
#X connect 5 0 18 0;
#X connect 6 0 3 2;
#X connect 6 0 10 2;
#X connect 6 0 42 0;
#X connect 7 0 86 0;
#X connect 8 0 87 0;
#X connect 9 0 7 1;
#X connect 9 0 8 1;
#X connect 10 1 7 0;
#X connect 11 0 13 0;
#X connect 12 0 44 0;
#X connect 12 0 31 0;
#X connect 13 0 3 0;
#X connect 14 0 46 0;
#X connect 15 0 16 0;
#X connect 15 0 46 1;
#X connect 16 0 46 0;
#X connect 17 0 3 1;
#X connect 17 0 10 1;
#X connect 20 0 9 0;
#X connect 21 0 27 0;
#X connect 21 0 28 0;
#X connect 23 0 29 0;
#X connect 26 0 15 0;
#X connect 27 0 45 0;
#X connect 28 0 14 0;
#X connect 29 0 38 0;
#X connect 29 0 39 1;
#X connect 29 0 40 1;
#X connect 29 0 45 2;
#X connect 29 0 68 0;
#X connect 30 0 33 0;
#X connect 31 0 11 0;
#X connect 32 0 0 0;
#X connect 33 0 31 1;
#X connect 33 0 32 1;
#X connect 34 0 33 1;
#X connect 35 0 39 0;
#X connect 36 0 40 0;
#X connect 38 0 35 1;
#X connect 38 0 36 1;
#X connect 38 0 37 0;
#X connect 39 0 51 0;
#X connect 40 0 53 0;
#X connect 41 0 35 0;
#X connect 41 1 36 0;
#X connect 43 0 55 0;
#X connect 45 0 1 0;
#X connect 45 0 88 0;
#X connect 45 1 12 0;
#X connect 45 2 5 0;
#X connect 46 0 41 0;
#X connect 46 1 41 1;
#X connect 47 0 45 1;
#X connect 48 0 49 0;
#X connect 48 0 85 0;
#X connect 49 0 47 0;
#X connect 49 0 50 0;
#X connect 50 0 45 3;
#X connect 52 0 2 1;
#X connect 54 0 13 1;
#X connect 55 0 6 0;
#X connect 56 0 62 0;
#X connect 57 0 58 0;
#X connect 58 0 62 1;
#X connect 58 0 64 1;
#X connect 59 0 56 0;
#X connect 60 0 64 0;
#X connect 60 0 68 1;
#X connect 61 0 59 0;
#X connect 61 0 57 0;
#X connect 61 0 62 0;
#X connect 61 0 64 0;
#X connect 62 0 60 0;
#X connect 64 0 65 0;
#X connect 65 0 68 2;
#X connect 68 0 34 0;
#X connect 69 0 61 0;
#X connect 69 0 84 0;
#X connect 80 0 82 0;
#X connect 83 0 87 1;
#X connect 83 0 86 1;
#X connect 86 0 24 0;
#X connect 87 0 25 0;
