#N canvas 1366 34 1056 1016 12;
#X obj 36 503 phasor~;
#X obj 39 417 hsl 170 20 20 10000 0 0 empty empty empty -2 -10 0 12 #fcfcfc #000000 #000000 0 1;
#X obj 157 673 *~;
#X obj 217 812 vcf~;
#X obj 355 925 dac~ 1 2;
#X obj 316 719 hsl 170 20 100 5000 0 0 empty empty empty -2 -10 0 12 #fcfcfc #000000 #000000 0 1;
#X obj 316 773 hsl 170 20 1 20 0 0 empty empty empty -2 -10 0 12 #fcfcfc #000000 #000000 0 1;
#X obj 161 869 *~;
#X obj 218 868 *~;
#X obj 111 764 vsl 20 170 0 1 0 0 empty empty empty 0 -9 0 12 #fcfcfc #000000 #000000 0 1;
#X obj 158 813 vcf~;
#X obj 263 509 phasor~;
#X obj 266 423 hsl 170 20 20 10000 0 0 empty empty empty -2 -10 0 12 #fcfcfc #000000 #000000 0 1;
#X obj 216 671 *~;
#X obj 35 88 hsl 170 20 0.02 5 0 0 empty empty empty -2 -10 0 12 #fcfcfc #000000 #000000 0 1;
#X obj 130 209 osc~;
#X obj 32 202 osc~;
#X obj 57 174 0;
#X obj 223 8 vsl 20 170 0 127 0 0 empty empty empty 0 -9 0 12 #fcfcfc #000000 #000000 0 1;
#X obj 223 200 b;
#X obj 211 455 * 1.5;
#X obj 313 744 sig~;
#X floatatom 353 744 5 0 0 0 - - - 0;
#X floatatom 306 461 5 0 0 0 - - - 0;
#X floatatom 56 445 5 0 0 0 - - - 0;
#X obj 33 723 inlet;
#X obj 32 31 inlet;
#X text 31 700 volume;
#X text 31 5 freq;
#X text 670 100 Noise;
#X obj 676 148 inlet;
#X obj 161 946 outlet~;
#X obj 218 945 outlet~;
#X obj 261 45 inlet;
#X obj 81 58 * 10000;
#X obj 32 56 * 16;
#X text 260 15 phase;
#X obj 676 173 vsl 20 170 0 1 0 0 empty empty empty 0 -9 0 12 #fcfcfc #000000 #000000 0 1;
#N canvas 2422 34 864 1016 bellsadd 1;
#X obj 165 202 osc~;
#X floatatom 164 161 5 0 0 0 - - - 0;
#X obj 246 204 osc~;
#X floatatom 245 163 5 0 0 0 - - - 0;
#X obj 298 207 osc~;
#X floatatom 297 166 5 0 0 0 - - - 0;
#X obj 379 209 osc~;
#X floatatom 378 168 5 0 0 0 - - - 0;
#X obj 430 203 osc~;
#X floatatom 429 162 5 0 0 0 - - - 0;
#X obj 511 205 osc~;
#X floatatom 510 164 5 0 0 0 - - - 0;
#X obj 563 208 osc~;
#X floatatom 562 167 5 0 0 0 - - - 0;
#X obj 644 210 osc~;
#X floatatom 643 169 5 0 0 0 - - - 0;
#X obj 560 123 1000;
#X obj 264 57 bng 20 250 50 0 empty empty empty 0 -10 0 12 #fcfcfc #000000 #000000;
#X obj 173 120 301;
#X obj 247 118 300.5;
#X obj 295 122 330;
#X obj 376 114 555, f 6;
#X obj 438 120 556;
#X obj 512 119 990;
#X obj 641 115 1001, f 6;
#X obj 302 342 +~, f 4;
#X obj 302 421 outlet~;
#X obj 302 367 *~ 0.1;
#X connect 0 0 25 0;
#X connect 1 0 0 0;
#X connect 2 0 25 1;
#X connect 3 0 2 0;
#X connect 4 0 25 1;
#X connect 5 0 4 0;
#X connect 6 0 25 1;
#X connect 7 0 6 0;
#X connect 8 0 25 1;
#X connect 9 0 8 0;
#X connect 10 0 25 1;
#X connect 11 0 10 0;
#X connect 12 0 25 1;
#X connect 13 0 12 0;
#X connect 14 0 25 1;
#X connect 15 0 14 0;
#X connect 16 0 13 0;
#X connect 17 0 16 0;
#X connect 17 0 18 0;
#X connect 17 0 19 0;
#X connect 17 0 20 0;
#X connect 17 0 21 0;
#X connect 17 0 22 0;
#X connect 17 0 23 0;
#X connect 17 0 24 0;
#X connect 18 0 1 0;
#X connect 19 0 3 0;
#X connect 20 0 5 0;
#X connect 21 0 7 0;
#X connect 22 0 9 0;
#X connect 23 0 11 0;
#X connect 24 0 15 0;
#X connect 25 0 27 0;
#X connect 27 0 26 0;
#X restore 557 238 pd bellsadd;
#X obj 263 478 +~;
#X obj 36 472 +~;
#X obj 557 389 *~;
#X floatatom 588 364 5 0 0 0 - - - 0;
#X obj 586 331 * 5000;
#X obj 676 401 + 70;
#X obj 676 426 mtof;
#X obj 676 375 * 20;
#X obj 31 247 *~;
#X obj 130 234 *~;
#N canvas 0 50 450 250 (subpatch) 0;
#X array disp 100 float 3;
#A 0 -0.930213 -0.930288 -0.930362 -0.930437 -0.930511 -0.930586 -0.930661 -0.930735 -0.93081 -0.930884 -0.930958 -0.931032 -0.931106 -0.93118 -0.931254 -0.931328 -0.931402 -0.931476 -0.93155 -0.931624 -0.931699 -0.931773 -0.931847 -0.93192 -0.931994 -0.932067 -0.932141 -0.932214 -0.932288 -0.932361 -0.932435 -0.932508 -0.932582 -0.932655 -0.932729 -0.932802 -0.932876 -0.932949 -0.933022 -0.933095 -0.933168 -0.933241 -0.933314 -0.933387 -0.93346 -0.933533 -0.933606 -0.933678 -0.933751 -0.933824 -0.933897 -0.93397 -0.934043 -0.934116 -0.934188 -0.93426 -0.934333 -0.934405 -0.934477 -0.93455 -0.934622 -0.934694 -0.934767 -0.934839 -0.934911 -0.934983 -0.935056 -0.935128 -0.9352 -0.935272 -0.935344 -0.935415 -0.935487 -0.935559 -0.935631 -0.935702 -0.935774 -0.935846 -0.935918 -0.935989 -0.936061 -0.936133 -0.936204 -0.936276 -0.936347 -0.936418 -0.93649 -0.936561 -0.936632 -0.936703 -0.936774 -0.936845 -0.936917 -0.936988 -0.937059 -0.93713 -0.937201 -0.937272 -0.937343 -0.937414;
#X coords 0 1 100 -1 200 140 1;
#X restore 700 624 graph;
#X obj 396 237 tabwrite~ disp;
#X obj 422 207 metro 100;
#X obj 419 177 tgl 20 0 empty empty empty 0 -10 0 12 #fcfcfc #000000 #000000 0 1;
#X floatatom 865 356 5 0 0 0 - - - 0;
#X obj 676 351 expr 1 - $f1;
#X obj 31 332 +~;
#X obj 130 330 +~;
#X connect 0 0 2 0;
#X connect 1 0 24 0;
#X connect 1 0 40 0;
#X connect 2 0 10 0;
#X connect 3 1 8 0;
#X connect 5 0 21 0;
#X connect 5 0 22 0;
#X connect 6 0 3 2;
#X connect 6 0 10 2;
#X connect 7 0 31 0;
#X connect 8 0 32 0;
#X connect 9 0 7 1;
#X connect 9 0 8 1;
#X connect 10 1 7 0;
#X connect 11 0 13 0;
#X connect 12 0 20 0;
#X connect 12 0 23 0;
#X connect 12 0 39 0;
#X connect 13 0 3 0;
#X connect 14 0 16 0;
#X connect 14 0 15 0;
#X connect 15 0 48 0;
#X connect 16 0 47 0;
#X connect 17 0 16 1;
#X connect 18 0 15 1;
#X connect 18 0 19 0;
#X connect 19 0 17 0;
#X connect 20 0 1 0;
#X connect 21 0 3 1;
#X connect 21 0 10 1;
#X connect 25 0 9 0;
#X connect 26 0 34 0;
#X connect 26 0 35 0;
#X connect 30 0 37 0;
#X connect 33 0 18 0;
#X connect 34 0 12 0;
#X connect 35 0 14 0;
#X connect 37 0 43 0;
#X connect 37 0 54 0;
#X connect 37 0 55 1;
#X connect 37 0 56 1;
#X connect 38 0 41 0;
#X connect 39 0 11 0;
#X connect 40 0 0 0;
#X connect 41 0 39 1;
#X connect 41 0 40 1;
#X connect 42 0 41 1;
#X connect 43 0 42 0;
#X connect 44 0 45 0;
#X connect 45 0 21 0;
#X connect 46 0 44 0;
#X connect 47 0 50 0;
#X connect 47 0 55 0;
#X connect 48 0 56 0;
#X connect 51 0 50 0;
#X connect 52 0 51 0;
#X connect 54 0 46 0;
#X connect 54 0 47 1;
#X connect 54 0 48 1;
#X connect 54 0 53 0;
#X connect 55 0 2 1;
#X connect 56 0 13 1;
