#N canvas 0 0 1311 1028 12;
#X obj 1320 350 vsl 20 200 0 1 0 0 empty empty empty 0 -9 0 12 #fcfcfc #000000 #000000 0 1;
#X msg 139 39 listen 57120;
#X obj 139 111 oscparse;
#X obj 139 76 netreceive -u -b;
#X obj 139 670 list trim;
#X obj 393 734 route lgmr_freq;
#X obj 522 734 route lgmr_noise;
#X obj 520 865 vsl 20 170 0 1 0 0 empty empty empty 0 -9 0 12 #fcfcfc #000000 #000000 0 1;
#X obj 500 300 vsl 20 170 0 1 0 0 empty empty empty 0 -9 0 12 #fcfcfc #000000 #000000 0 1;
#X obj 391 865 vsl 20 170 0 1 0 0 empty empty empty 0 -9 0 12 #fcfcfc #000000 #000000 0 1;
#X obj 191 905 vsl 20 170 0 1 0 0 empty empty empty 0 -9 0 12 #fcfcfc #000000 #000000 0 1;
#N canvas 1254 5 670 1020 pression 0;
#X obj 166 81 inlet;
#X text 164 51 Valeur visée;
#X text 287 53 Marge;
#X obj 286 81 inlet;
#X obj 85 189 >;
#X text 78 51 Pression;
#X obj 85 82 inlet;
#X obj 249 114 + 1;
#X obj 145 189 <;
#X obj 85 236 +;
#X text 210 447 isOn;
#X obj 210 470 inlet;
#X obj 165 490 *~;
#X obj 166 712 outlet~;
#X obj 166 519 *~;
#X obj 274 460 expr~ $v1 > 0.5;
#X obj 428 93 bng 20 250 50 0 empty empty empty 0 -10 0 12 #fcfcfc #000000 #000000;
#X obj 166 544 *~;
#X obj 272 487 expr~ $v1;
#X obj 165 394 *~;
#X obj 272 437 phasor~ 1;
#X obj 337 115 expr 1 - $f1;
#X obj 201 393 osc~ 30;
#X obj 165 294 expr~ $v1 - 0.5;
#X obj 165 349 expr~ 4* $v1 * $v2 - 0.5;
#X obj 329 288 expr~ $v1 > 0.5;
#X obj 329 313 -~ 0.5;
#X obj 165 269 phasor~ 440;
#X obj 41 621 inlet;
#X obj 166 659 *~;
#X text 40 590 Volume;
#X floatatom 286 137 5 0 0 0 - - - 0;
#X floatatom 85 152 5 0 0 0 - - - 0;
#X obj 165 120 +;
#X obj 185 154 -;
#X floatatom 85 260 5 0 0 0 - - - 0;
#X obj 238 77 b;
#X connect 0 0 33 0;
#X connect 0 0 34 0;
#X connect 3 0 7 0;
#X connect 3 0 21 0;
#X connect 3 0 33 1;
#X connect 3 0 34 1;
#X connect 3 0 36 0;
#X connect 4 0 9 0;
#X connect 6 0 32 0;
#X connect 8 0 9 1;
#X connect 9 0 14 1;
#X connect 9 0 35 0;
#X connect 11 0 12 1;
#X connect 12 0 14 0;
#X connect 14 0 17 0;
#X connect 15 0 18 0;
#X connect 16 0 21 0;
#X connect 17 0 29 0;
#X connect 18 0 17 1;
#X connect 19 0 12 0;
#X connect 20 0 15 0;
#X connect 21 0 31 0;
#X connect 22 0 19 1;
#X connect 23 0 24 0;
#X connect 24 0 19 0;
#X connect 25 0 26 0;
#X connect 26 0 24 1;
#X connect 27 0 23 0;
#X connect 27 0 25 0;
#X connect 28 0 29 1;
#X connect 29 0 13 0;
#X connect 32 0 4 0;
#X connect 32 0 8 0;
#X connect 33 0 4 1;
#X connect 34 0 8 1;
#X connect 36 0 33 0;
#X connect 36 0 34 0;
#X restore 161 1165 pd pression;
#X obj 402 353 0.5;
#X obj 360 480 bng 20 250 50 0 empty empty empty 0 -10 0 12 #fcfcfc #000000 #000000;
#X obj 411 408 0.1;
#X obj 191 530 tgl 50 0 empty empty empty 0 -10 0 12 #fcfcfc #000000 #000000 0 1;
#X obj 658 734 route lgmr_phase;
#X obj 651 858 vsl 20 170 0 1 0 0 empty empty empty 0 -9 0 12 #fcfcfc #000000 #000000 0 1;
#X floatatom 656 1043 5 0 0 0 - - - 0;
#X obj 590 1240 LangmuirPhaseSignal;
#X obj 258 734 loadbang;
#X obj 491 530 tgl 50 0 empty empty empty 0 -10 0 12 #fcfcfc #000000 #000000 0 1;
#X obj 760 1240 Jaz, f 14;
#X obj 631 530 tgl 50 0 empty empty empty 0 -10 0 12 #fcfcfc #000000 #000000 0 1;
#X obj 790 870 vsl 20 170 0 1 0 0 empty empty empty 0 -9 0 12 #fcfcfc #000000 #000000 0 1;
#X obj 910 870 vsl 20 170 0 1 0 0 empty empty empty 0 -9 0 12 #fcfcfc #000000 #000000 0 1;
#X obj 721 532 tgl 50 0 empty empty empty 0 -10 0 12 #fcfcfc #000000 #000000 0 1;
#X obj 431 825 tgl 30 0 empty empty empty 0 -10 0 12 #fcfcfc #000000 #000000 0 1;
#X obj 880 1240 jazRelSeq;
#X obj 640 300 vsl 20 170 0 1 0 0 empty empty empty 0 -9 0 12 #fcfcfc #000000 #000000 0 1;
#X obj 730 301 vsl 20 170 0 1 0 0 empty empty empty 0 -9 0 12 #fcfcfc #000000 #000000 0 1;
#X text 420 230 ---- SONDE DE LANGMUIR ----;
#X obj 410 1090 expr $f1 * 0.1 * $f2 + $f1 * (1-$f2), f 7;
#X obj 459 865 b;
#X floatatom 391 1043 8 0 0 0 - - - 0;
#X obj 139 730 route pression;
#N canvas 1368 33 670 1020 output 0;
#X obj 210 190 inlet;
#X obj 210 219 vsl 15 128 0 1 0 0 empty empty empty 0 -9 0 10 #fcfcfc #000000 #000000 0 1;
#X obj 300 380 *~;
#X obj 319 182 inlet~;
#X obj 419 181 inlet~;
#X obj 400 380 *~;
#X obj 300 459 dac~ 1 2, f 15;
#X connect 0 0 1 0;
#X connect 1 0 2 0;
#X connect 1 0 5 0;
#X connect 2 0 6 0;
#X connect 3 0 2 1;
#X connect 4 0 5 1;
#X connect 5 0 6 1;
#X restore 320 1350 pd output;
#X obj 200 300 vsl 20 170 0 1 0 0 empty empty empty 0 -9 0 12 #fcfcfc #000000 #000000 0 1;
#X text 190 230 ---- SONDE de PRESSION ----;
#X text 190 480 Volume;
#X text 181 1085 pression;
#X text 251 400 valeur visée;
#X text 300 440 marge;
#X text 266 480 actualiser;
#X text 490 480 Volume;
#X text 630 479 Volume;
#X text 720 481 Volume;
#X text 630 269 Global;
#X text 720 270 Relatif;
#X text 650 230 -------------- SPECTRO JAZ ---------------;
#X obj 430 800 loadbang;
#X obj 790 735 route jazGlobal;
#X obj 910 735 route jazRel;
#X obj 1024 303 hsl 170 20 0 6143 0 0 empty empty empty -2 -10 0 12 #fcfcfc #000000 #000000 0 1;
#X obj 1023 368 hsl 170 20 0 6143 0 0 empty empty empty -2 -10 0 12 #fcfcfc #000000 #000000 0 1;
#X text 1060 270 pixel 1;
#X text 1060 346 pixel 2;
#X obj 1175 1184 netsend -u -b;
#X obj 1310 220 bng 45 250 50 0 empty empty empty 17 7 0 10 #fcfcfc #000000 #000000;
#X text 1310 200 connect;
#X msg 1460 520 connect localhost 57121;
#X obj 1175 1054 oscformat pixel1;
#X obj 1175 1104 list prepend send;
#X obj 1175 1144 list trim;
#X obj 1355 1054 oscformat pixel2;
#X obj 1200 1010 f;
#X obj 1469 578 route poke;
#X obj 1469 603 b;
#X obj 1367 1017 f;
#X floatatom 360 400 5 0 0 0 - - - 0;
#X floatatom 360 437 5 0 0 0 - - - 0;
#X obj 390 320 loadbang;
#X floatatom 1200 303 5 0 0 0 - - - 0;
#X floatatom 1200 369 5 0 0 0 - - - 0;
#X obj 1560 578 route indexToWl;
#X obj 1558 642 unpack f f;
#X obj 1560 603 print;
#N canvas 2 33 953 703 smoothValue 0;
#X obj 218 105 inlet;
#X msg 218 130 \$1 100;
#X obj 218 155 line;
#X obj 218 180 outlet;
#X connect 0 0 1 0;
#X connect 1 0 2 0;
#X connect 2 0 3 0;
#X restore 910 1130 pd smoothValue;
#N canvas 2 33 953 703 smoothValue 0;
#X obj 218 105 inlet;
#X msg 218 130 \$1 100;
#X obj 218 155 line;
#X obj 218 180 outlet;
#X connect 0 0 1 0;
#X connect 1 0 2 0;
#X connect 2 0 3 0;
#X restore 790 1090 pd smoothValue;
#N canvas 2 33 953 703 smoothValue 0;
#X obj 218 105 inlet;
#X obj 218 155 line;
#X obj 218 180 outlet;
#X msg 218 130 \$1 100;
#X connect 0 0 3 0;
#X connect 1 0 2 0;
#X connect 3 0 1 0;
#X restore 410 1220 pd smoothValue;
#N canvas 2 33 953 703 smoothValue 0;
#X obj 218 105 inlet;
#X msg 218 130 \$1 100;
#X obj 218 155 line;
#X obj 218 180 outlet;
#X connect 0 0 1 0;
#X connect 1 0 2 0;
#X connect 2 0 3 0;
#X restore 612 1099 pd smoothValue;
#N canvas 2 33 953 703 smoothValue 0;
#X obj 218 105 inlet;
#X obj 218 155 line;
#X obj 218 180 outlet;
#X msg 218 130 \$1 1000;
#X connect 0 0 3 0;
#X connect 1 0 2 0;
#X connect 3 0 1 0;
#X restore 521 1080 pd smoothValue;
#N canvas 2 33 953 703 smoothValue 0;
#X obj 218 105 inlet;
#X msg 218 130 \$1 100;
#X obj 218 155 line;
#X obj 218 180 outlet;
#X connect 0 0 1 0;
#X connect 1 0 2 0;
#X connect 2 0 3 0;
#X restore 245 1111 pd smoothValue;
#X floatatom 910 1154 5 0 0 0 - - - 0;
#X msg 1043 76 disconnect;
#X obj 979 1084 > 0;
#X obj 910 1090 *;
#X floatatom 538 343 5 0 0 0 - - - 0;
#X floatatom 1198 330 5 0 0 0 - - - 0;
#X floatatom 1202 399 5 0 0 0 - - - 0;
#X obj 1686 578 route iToSpc;
#X obj 1686 645 unpack f f;
#X floatatom 362 366 5 0 0 0 - - - 0;
#X obj 1469 627 bng 19 250 50 0 empty empty empty 0 -10 0 12 #fcfcfc #000000 #000000;
#X obj 1686 602 b;
#X obj 830 300 vsl 20 170 10000 1e+06 1 0 empty empty empty 0 -9 0 10 #fcfcfc #000000 #000000 0 1;
#X text 790 480 Integration Time;
#X text 1290 570 Main Volume;
#X obj 1050 740 f;
#X obj 1050 800 oscformat intTime;
#X floatatom 810 500 9 0 0 0 - - - 0;
#X obj 980 300 bng 25 250 50 0 empty empty empty 17 7 0 10 #fcfcfc #000000 #000000;
#X obj 1250 300 bng 25 250 50 0 empty empty empty 17 7 0 10 #fcfcfc #000000 #000000;
#X text 987 302 <;
#X text 1258 302 >;
#X obj 1252 368 bng 25 250 50 0 empty empty empty 17 7 0 10 #fcfcfc #000000 #000000;
#X text 1260 370 >;
#X obj 982 368 bng 25 250 50 0 empty empty empty 17 7 0 10 #fcfcfc #000000 #000000;
#X text 990 370 <;
#X obj 1190 800 oscformat nexti1;
#X obj 980 334 0;
#X obj 1250 334 1;
#X obj 1320 800 oscformat nexti2;
#X obj 982 402 0;
#X obj 1252 402 1;
#X obj 930 300 vsl 20 170 0 2000 0 0 empty empty empty 0 -9 0 12 #fcfcfc #000000 #000000 0 1;
#X text 913 481 Peak Threshold;
#X floatatom 930 500 8 0 0 0 - - - 0;
#X obj 1490 799 oscformat peakThrshld;
#X obj 1469 724 f;
#X obj 1018 141 route newPixel1;
#X obj 1018 165 f;
#X obj 1151 164 f;
#X obj 1151 140 route newPixel2;
#X text 228 363 valeur actuelle;
#X text 532 315 Taux de bruit;
#X text 524 374 0 -> signal pur;
#X text 527 403 1 -> bruit;
#X text 302 252 CMR;
#X obj 422 382 snapshot~;
#X floatatom 426 448 5 0 0 0 - - - 0;
#X text 1124 270 bleu;
#X text 1121 346 vert;
#X text 1052 427 son : vert puis bleu;
#X connect 0 0 36 0;
#X connect 1 0 3 0;
#X connect 2 0 4 0;
#X connect 3 0 2 0;
#X connect 4 0 5 0;
#X connect 4 0 6 0;
#X connect 4 0 16 0;
#X connect 4 0 35 0;
#X connect 4 0 51 0;
#X connect 4 0 52 0;
#X connect 4 0 66 0;
#X connect 4 0 74 0;
#X connect 4 0 90 0;
#X connect 4 0 120 0;
#X connect 4 0 123 0;
#X connect 5 0 9 0;
#X connect 6 0 7 0;
#X connect 7 0 81 0;
#X connect 7 0 87 0;
#X connect 7 0 22 3;
#X connect 8 0 19 1;
#X connect 9 0 32 0;
#X connect 9 0 34 0;
#X connect 10 0 82 0;
#X connect 10 0 92 0;
#X connect 11 0 36 1;
#X connect 11 0 36 2;
#X connect 12 0 69 0;
#X connect 13 0 70 0;
#X connect 13 0 69 0;
#X connect 13 0 129 0;
#X connect 14 0 70 0;
#X connect 15 0 11 3;
#X connect 17 0 18 0;
#X connect 19 0 36 1;
#X connect 19 0 36 2;
#X connect 19 1 36 2;
#X connect 19 1 36 1;
#X connect 20 0 13 0;
#X connect 21 0 19 4;
#X connect 22 0 36 1;
#X connect 22 0 36 2;
#X connect 23 0 22 2;
#X connect 24 0 78 0;
#X connect 25 0 85 0;
#X connect 25 0 86 0;
#X connect 26 0 28 0;
#X connect 27 0 32 1;
#X connect 27 0 33 0;
#X connect 28 0 36 1;
#X connect 28 0 36 2;
#X connect 29 0 22 0;
#X connect 30 0 28 2;
#X connect 32 0 22 1;
#X connect 32 0 79 0;
#X connect 33 0 9 0;
#X connect 35 0 10 0;
#X connect 37 0 11 0;
#X connect 50 0 27 0;
#X connect 51 0 24 0;
#X connect 52 0 25 0;
#X connect 53 0 65 1;
#X connect 54 0 68 1;
#X connect 58 0 60 0;
#X connect 58 0 1 0;
#X connect 60 0 57 0;
#X connect 61 0 62 0;
#X connect 62 0 63 0;
#X connect 63 0 57 0;
#X connect 64 0 62 0;
#X connect 65 0 61 0;
#X connect 66 0 67 0;
#X connect 67 0 53 0;
#X connect 67 0 68 0;
#X connect 67 0 65 0;
#X connect 67 0 93 0;
#X connect 67 0 54 0;
#X connect 67 0 115 0;
#X connect 67 0 95 0;
#X connect 68 0 64 0;
#X connect 69 0 11 2;
#X connect 70 0 11 4;
#X connect 71 0 12 0;
#X connect 71 0 14 0;
#X connect 74 0 75 0;
#X connect 74 0 76 0;
#X connect 75 0 72 0;
#X connect 75 1 73 0;
#X connect 77 0 28 3;
#X connect 77 0 83 0;
#X connect 78 0 22 4;
#X connect 79 0 19 0;
#X connect 80 0 19 2;
#X connect 81 0 19 3;
#X connect 82 0 11 1;
#X connect 84 0 57 0;
#X connect 84 0 3 0;
#X connect 85 0 86 1;
#X connect 86 0 77 0;
#X connect 90 0 91 0;
#X connect 90 0 94 0;
#X connect 91 0 88 0;
#X connect 91 1 89 0;
#X connect 92 0 129 0;
#X connect 94 0 28 1;
#X connect 95 0 98 0;
#X connect 95 0 100 0;
#X connect 98 0 99 0;
#X connect 99 0 62 0;
#X connect 101 0 110 0;
#X connect 102 0 111 0;
#X connect 105 0 114 0;
#X connect 107 0 113 0;
#X connect 109 0 62 0;
#X connect 110 0 109 0;
#X connect 111 0 109 0;
#X connect 112 0 62 0;
#X connect 113 0 112 0;
#X connect 114 0 112 0;
#X connect 115 0 117 0;
#X connect 115 0 119 0;
#X connect 118 0 62 0;
#X connect 119 0 118 0;
#X connect 120 0 121 0;
#X connect 121 0 53 0;
#X connect 122 0 54 0;
#X connect 123 0 122 0;
#X connect 129 0 130 0;
#X coords 0 -1 1 1 1268 431 1 135 191;
