#N canvas 1368 33 1245 1020 12;
#X obj 70 740 vsl 20 170 0 1 0 0 empty empty empty 0 -9 0 12 #fcfcfc
#000000 #000000 0 1;
#X msg 139 39 listen 57120;
#X obj 139 111 oscparse;
#X obj 139 76 netreceive -u -b;
#X obj 139 136 list trim;
#X obj 515 160 route lgmr_freq;
#X obj 644 160 route lgmr_noise;
#X obj 649 690 vsl 20 170 0 1 0 0 empty empty empty 0 -9 0 12 #fcfcfc
#000000 #000000 0 1;
#X obj 630 300 vsl 20 170 0 1 0 0 empty empty empty 0 -9 0 12 #fcfcfc
#000000 #000000 10400 1;
#X obj 520 690 vsl 20 170 0 1 0 0 empty empty empty 0 -9 0 12 #fcfcfc
#000000 #000000 0 1;
#X obj 230 660 vsl 20 170 0 1 0 0 empty empty empty 0 -9 0 12 #fcfcfc
#000000 #000000 0 1;
#N canvas 1368 33 670 1020 pression 0;
#X obj 166 81 inlet;
#X text 164 51 Valeur visée;
#X text 287 53 Marge;
#X obj 286 81 inlet;
#X obj 85 189 >;
#X text 78 51 Pression;
#X obj 85 82 inlet;
#X obj 85 128 /;
#X obj 249 114 + 1;
#X obj 145 189 <;
#X obj 85 236 +;
#X text 210 447 isOn;
#X obj 210 470 inlet;
#X obj 165 490 *~;
#X obj 166 712 outlet~;
#X obj 166 519 *~;
#X obj 274 460 expr~ $v1 > 0.5;
#X obj 428 93 bng 20 250 50 0 empty empty empty 0 -10 0 12 #fcfcfc
#000000 #000000;
#X obj 166 544 *~;
#X obj 272 487 expr~ $v1;
#X obj 165 394 *~;
#X obj 272 437 phasor~ 1;
#X obj 286 113 expr 1 - $f1;
#X obj 201 393 osc~ 30;
#X obj 165 294 expr~ $v1 - 0.5;
#X obj 165 349 expr~ 4* $v1 * $v2 - 0.5;
#X obj 329 288 expr~ $v1 > 0.5;
#X obj 329 313 -~ 0.5;
#X obj 165 269 phasor~ 440;
#X obj 41 621 inlet;
#X obj 166 659 *~;
#X text 40 590 Volume;
#X connect 0 0 7 1;
#X connect 3 0 8 0;
#X connect 3 0 22 0;
#X connect 4 0 10 0;
#X connect 6 0 7 0;
#X connect 7 0 4 0;
#X connect 7 0 9 0;
#X connect 8 0 4 1;
#X connect 9 0 10 1;
#X connect 10 0 15 1;
#X connect 12 0 13 1;
#X connect 13 0 15 0;
#X connect 15 0 18 0;
#X connect 16 0 19 0;
#X connect 17 0 22 0;
#X connect 18 0 30 0;
#X connect 19 0 18 1;
#X connect 20 0 13 0;
#X connect 21 0 16 0;
#X connect 22 0 9 1;
#X connect 23 0 20 1;
#X connect 24 0 25 0;
#X connect 25 0 20 0;
#X connect 26 0 27 0;
#X connect 27 0 25 1;
#X connect 28 0 24 0;
#X connect 28 0 26 0;
#X connect 29 0 30 1;
#X connect 30 0 14 0;
#X restore 200 920 pd pression;
#X obj 360 400 0.5;
#X obj 360 480 bng 20 250 50 0 empty empty empty 0 -10 0 12 #fcfcfc
#000000 #000000;
#X obj 360 440 0.1;
#X obj 191 530 tgl 50 0 empty empty empty 0 -10 0 12 #fcfcfc #000000
#000000 1 1;
#X obj 780 160 route lgmr_phase;
#X obj 785 690 vsl 20 170 0 1 0 0 empty empty empty 0 -9 0 12 #fcfcfc
#000000 #000000 0 1;
#X floatatom 785 868 5 0 0 0 - - -, f 5;
#X obj 552 1028 LangmuirPhaseSignal;
#X obj 380 160 loadbang;
#X obj 621 530 tgl 50 0 empty empty empty 0 -10 0 12 #fcfcfc #000000
#000000 1 1;
#X obj 920 1021 Jaz, f 14;
#X obj 891 530 tgl 50 0 empty empty empty 0 -10 0 12 #fcfcfc #000000
#000000 0 1;
#X obj 1177 156 route jaz_gint;
#X obj 1015 680 vsl 20 170 0 1 0 0 empty empty empty 0 -9 0 12 #fcfcfc
#000000 #000000 0 1;
#X obj 1230 680 vsl 20 170 0 1 0 0 empty empty empty 0 -9 0 12 #fcfcfc
#000000 #000000 0 1;
#X obj 1392 156 route jaz_rint;
#X obj 1091 530 tgl 50 0 empty empty empty 0 -10 0 12 #fcfcfc #000000
#000000 0 1;
#X obj 560 650 tgl 30 0 empty empty empty 0 -10 0 12 #fcfcfc #000000
#000000 1 1;
#X obj 1106 1021 jazRelSeq;
#X obj 900 300 vsl 20 170 0 1 0 0 empty empty empty 0 -9 0 12 #fcfcfc
#000000 #000000 0 1;
#X obj 1100 300 vsl 20 170 0 1 0 0 empty empty empty 0 -9 0 12 #fcfcfc
#000000 #000000 0 1;
#X text 550 230 ---- SONDE DE LANGMUIR ----;
#X obj 552 863 expr $f1 * 0.1 * $f2 + $f1 * (1-$f2), f 7;
#X obj 588 690 b;
#X floatatom 520 868 5 0 0 0 - - -, f 5;
#X obj 261 156 route pression;
#N canvas 1368 33 670 1020 output 0;
#X obj 210 190 inlet;
#X obj 210 219 vsl 15 128 0 1 0 0 empty empty empty 0 -9 0 10 #fcfcfc
#000000 #000000 0 1;
#X obj 300 380 *~;
#X obj 319 182 inlet~;
#X obj 419 181 inlet~;
#X obj 400 380 *~;
#X obj 300 459 dac~ 1 2, f 15;
#X connect 0 0 1 0;
#X connect 1 0 2 0;
#X connect 1 0 5 0;
#X connect 2 0 6 0;
#X connect 3 0 2 1;
#X connect 4 0 5 1;
#X connect 5 0 6 1;
#X restore 440 1330 pd output;
#X obj 200 300 vsl 20 170 0 1 0 0 empty empty empty 0 -9 0 12 #fcfcfc
#000000 #000000 9300 1;
#X text 190 230 ---- SONDE de PRESSION ----;
#X text 190 480 Volume;
#X text 220 840 pression;
#X text 251 400 valeur visée;
#X text 300 440 marge;
#X text 266 480 actualiser;
#X text 620 480 Volume;
#X text 890 479 Volume;
#X text 1090 479 Volume;
#X text 890 269 Global;
#X text 1090 268 Relatif;
#X text 860 230 -------------- SPECTRO JAZ ---------------;
#X obj 559 625 loadbang;
#X connect 0 0 38 0;
#X connect 1 0 3 0;
#X connect 2 0 4 0;
#X connect 3 0 2 0;
#X connect 4 0 5 0;
#X connect 4 0 6 0;
#X connect 4 0 16 0;
#X connect 4 0 24 0;
#X connect 4 0 27 0;
#X connect 4 0 37 0;
#X connect 5 0 9 0;
#X connect 6 0 7 0;
#X connect 7 0 19 3;
#X connect 8 0 19 1;
#X connect 9 0 34 0;
#X connect 9 0 36 0;
#X connect 10 0 11 1;
#X connect 11 0 38 1;
#X connect 11 0 38 2;
#X connect 12 0 11 2;
#X connect 13 0 12 0;
#X connect 13 0 14 0;
#X connect 14 0 11 4;
#X connect 15 0 11 3;
#X connect 16 0 17 0;
#X connect 17 0 18 0;
#X connect 17 0 19 2;
#X connect 19 0 38 1;
#X connect 19 0 38 2;
#X connect 19 1 38 2;
#X connect 19 1 38 1;
#X connect 20 0 13 0;
#X connect 21 0 19 4;
#X connect 22 0 38 1;
#X connect 22 0 38 2;
#X connect 23 0 22 2;
#X connect 24 0 25 0;
#X connect 25 0 22 3;
#X connect 26 0 30 2;
#X connect 27 0 26 0;
#X connect 28 0 30 0;
#X connect 29 0 34 1;
#X connect 29 0 35 0;
#X connect 30 0 38 1;
#X connect 30 0 38 2;
#X connect 31 0 22 0;
#X connect 32 0 30 1;
#X connect 34 0 19 0;
#X connect 34 0 22 1;
#X connect 35 0 9 0;
#X connect 37 0 10 0;
#X connect 39 0 11 0;
#X connect 52 0 29 0;
#X coords 0 -1 1 1 1268 431 1 135 191;
