#N canvas 2 33 1362 703 12;
#X obj 730 839 dac~ 1 2;
#X obj 46 191 vsl 20 170 0 1 0 0 empty empty empty 0 -9 0 12 #fcfcfc #000000 #000000 0 1;
#X msg 139 39 listen 57120;
#X obj 139 111 oscparse;
#X obj 139 76 netreceive -u -b;
#X obj 139 136 list trim;
#X obj 539 156 route langmuir;
#X obj 661 156 route lgmr_freq;
#X obj 790 156 route lgmr_noise;
#X obj 790 191 vsl 20 170 0 1 0 0 empty empty empty 0 -9 0 12 #fcfcfc #000000 #000000 0 1;
#X obj 539 191 vsl 20 170 0 1 0 0 empty empty empty 0 -9 0 12 #fcfcfc #000000 #000000 0 1;
#X obj 661 191 vsl 20 170 0 1 0 0 empty empty empty 0 -9 0 12 #fcfcfc #000000 #000000 0 1;
#X obj 261 191 vsl 20 170 0 1 0 0 empty empty empty 0 -9 0 12 #fcfcfc #000000 #000000 0 1;
#N canvas 1366 34 960 1016 pression 0;
#X obj 166 81 inlet;
#X text 164 51 Valeur visée;
#X text 287 53 Marge;
#X obj 286 81 inlet;
#X obj 85 189 >;
#X text 78 51 Pression;
#X obj 85 82 inlet;
#X obj 85 128 /;
#X obj 249 114 + 1;
#X obj 145 189 <;
#X obj 85 236 +;
#X text 210 447 isOn;
#X obj 210 470 inlet;
#X obj 165 490 *~;
#X obj 166 712 outlet~;
#X obj 166 519 *~;
#X obj 274 460 expr~ $v1 > 0.5;
#X obj 428 93 bng 20 250 50 0 empty empty empty 0 -10 0 12 #fcfcfc #000000 #000000;
#X obj 166 544 *~;
#X obj 272 487 expr~ $v1;
#X obj 165 394 *~;
#X obj 272 437 phasor~ 1;
#X obj 286 113 expr 1 - $f1;
#X obj 201 393 osc~ 30;
#X obj 165 294 expr~ $v1 - 0.5;
#X obj 165 349 expr~ 4* $v1 * $v2 - 0.5;
#X obj 329 288 expr~ $v1 > 0.5;
#X obj 329 313 -~ 0.5;
#X obj 165 269 phasor~ 440;
#X obj 244 623 inlet;
#X obj 166 659 *~;
#X text 243 592 Volume;
#X connect 0 0 7 1;
#X connect 3 0 8 0;
#X connect 3 0 22 0;
#X connect 4 0 10 0;
#X connect 6 0 7 0;
#X connect 7 0 4 0;
#X connect 7 0 9 0;
#X connect 8 0 4 1;
#X connect 9 0 10 1;
#X connect 10 0 15 1;
#X connect 12 0 13 1;
#X connect 13 0 15 0;
#X connect 15 0 18 0;
#X connect 16 0 19 0;
#X connect 17 0 22 0;
#X connect 18 0 30 0;
#X connect 19 0 18 1;
#X connect 20 0 13 0;
#X connect 21 0 16 0;
#X connect 22 0 9 1;
#X connect 23 0 20 1;
#X connect 24 0 25 0;
#X connect 25 0 20 0;
#X connect 26 0 27 0;
#X connect 27 0 25 1;
#X connect 28 0 24 0;
#X connect 28 0 26 0;
#X connect 29 0 30 1;
#X connect 30 0 14 0;
#X restore 261 529 pd pression;
#X obj 285 476 0.5;
#X obj 285 445 bng 20 250 50 0 empty empty empty 0 -10 0 12 #fcfcfc #000000 #000000;
#X obj 310 495 0.1;
#X obj 342 499 tgl 50 0 empty empty empty 0 -10 0 12 #fcfcfc #000000 #000000 0 1;
#X obj 730 730 *~ 0.4;
#X obj 830 732 *~ 0.4;
#X obj 926 156 route lgmr_phase;
#X obj 926 191 vsl 20 170 0 1 0 0 empty empty empty 0 -9 0 12 #fcfcfc #000000 #000000 0 1;
#X obj 46 156 route volume;
#X obj 46 529 * 0.5;
#X floatatom 926 369 5 0 0 0 - - - 0;
#X obj 693 529 LangmuirPhaseSignal;
#X obj 285 391 loadbang;
#X obj 830 499 tgl 50 0 empty empty empty 0 -10 0 12 #fcfcfc #000000 #000000 0 1;
#X obj 1082 529 Jaz, f 14;
#X obj 1184 499 tgl 50 0 empty empty empty 0 -10 0 12 #fcfcfc #000000 #000000 0 1;
#X obj 1177 156 route jaz_gint;
#X obj 1177 188 vsl 20 170 0 1 0 0 empty empty empty 0 -9 0 12 #fcfcfc #000000 #000000 0 1;
#X obj 1392 188 vsl 20 170 0 1 0 0 empty empty empty 0 -9 0 12 #fcfcfc #000000 #000000 0 1;
#X obj 1392 156 route jaz_rint;
#X obj 1335 499 tgl 50 0 empty empty empty 0 -10 0 12 #fcfcfc #000000 #000000 0 1;
#X obj 739 316 tgl 30 0 empty empty empty 0 -10 0 12 #fcfcfc #000000 #000000 0 1;
#X obj 1268 529 jazRelSeq;
#X obj 1082 188 vsl 20 170 0 1 0 0 empty empty empty 0 -9 0 12 #fcfcfc #000000 #000000 0 1;
#X obj 1082 156 route jazg;
#X obj 1298 188 vsl 20 170 0 1 0 0 empty empty empty 0 -9 0 12 #fcfcfc #000000 #000000 0 1;
#X obj 1298 156 route jazr;
#X obj 261 156 route mpression;
#X obj 390 191 vsl 20 170 0 1 0 0 empty empty empty 0 -9 0 12 #fcfcfc #000000 #000000 0 1;
#X obj 390 156 route vpression;
#X text 316 126 ---- PRESSION ----;
#X text 686 126 ---- SONDE DE LANGMUIR ----;
#X text 1206 126 ---- SPECTRO JAZ ----;
#X obj 693 364 expr $f1 * 0.1 * $f2 + $f1 * (1-$f2), f 7;
#X obj 739 181 b;
#X floatatom 661 369 5 0 0 0 - - - 0;
#X connect 1 0 23 0;
#X connect 2 0 4 0;
#X connect 3 0 5 0;
#X connect 4 0 3 0;
#X connect 5 0 6 0;
#X connect 5 0 7 0;
#X connect 5 0 8 0;
#X connect 5 0 20 0;
#X connect 5 0 22 0;
#X connect 5 0 30 0;
#X connect 5 0 33 0;
#X connect 5 0 41 0;
#X connect 5 0 43 0;
#X connect 6 0 10 0;
#X connect 7 0 11 0;
#X connect 8 0 9 0;
#X connect 9 0 25 3;
#X connect 10 0 25 1;
#X connect 11 0 47 0;
#X connect 11 0 49 0;
#X connect 12 0 13 0;
#X connect 13 0 18 0;
#X connect 13 0 19 0;
#X connect 14 0 13 1;
#X connect 15 0 14 0;
#X connect 15 0 16 0;
#X connect 16 0 13 4;
#X connect 17 0 13 2;
#X connect 18 0 0 0;
#X connect 19 0 0 1;
#X connect 20 0 21 0;
#X connect 21 0 24 0;
#X connect 21 0 25 2;
#X connect 22 0 1 0;
#X connect 23 0 18 1;
#X connect 23 0 19 1;
#X connect 25 1 18 0;
#X connect 25 1 19 0;
#X connect 25 2 18 0;
#X connect 25 2 19 0;
#X connect 26 0 15 0;
#X connect 27 0 25 4;
#X connect 28 0 19 0;
#X connect 28 0 18 0;
#X connect 29 0 28 2;
#X connect 30 0 31 0;
#X connect 31 0 28 3;
#X connect 32 0 36 2;
#X connect 33 0 32 0;
#X connect 34 0 36 0;
#X connect 35 0 47 1;
#X connect 35 0 48 0;
#X connect 36 0 19 0;
#X connect 36 0 18 0;
#X connect 37 0 28 0;
#X connect 38 0 37 0;
#X connect 39 0 36 1;
#X connect 40 0 39 0;
#X connect 41 0 12 0;
#X connect 42 0 13 3;
#X connect 43 0 42 0;
#X connect 47 0 25 0;
#X connect 47 0 28 1;
#X connect 48 0 11 0;
